<svg width="73" height="73" viewBox="0 0 73 73" fill="none" xmlns="http://www.w3.org/2000/svg">
<path d="M36.1543 0C56.1218 0 72.3085 16.1868 72.3086 36.1543C72.3086 56.1218 56.1218 72.3086 36.1543 72.3086C16.1868 72.3085 0 56.1218 0 36.1543C5.36022e-05 16.1869 16.1869 5.36055e-05 36.1543 0ZM36.6074 13.1143H35.6016V14.2959H36.6074V15.3262C32.7269 15.4253 29.1273 16.6143 26.1172 18.584V60.2607H30.8438V49.4053C32.8378 48.7487 34.9743 48.3936 37.1973 48.3936C39.4202 48.3936 41.5112 48.7419 43.4844 49.3838V60.2607H48.2119V18.584C45.2018 16.6143 41.6017 15.4289 37.7246 15.3262V14.2959H38.7236V13.1143H37.7246V12.0547H36.6074V13.1143ZM32.6611 30.3945C34.173 30.3945 35.3934 31.689 35.3936 33.2881C35.3936 34.8873 34.1697 36.1826 32.6611 36.1826C31.1491 36.1826 29.9248 34.8873 29.9248 33.2881C29.925 31.6891 31.1493 30.3946 32.6611 30.3945ZM41.8516 30.3945C43.3634 30.3947 44.5877 31.6891 44.5879 33.2881C44.5879 34.8872 43.3635 36.1825 41.8516 36.1826C40.3395 36.1826 39.1152 34.8873 39.1152 33.2881C39.1154 31.689 40.3396 30.3945 41.8516 30.3945ZM37.1631 19.8789C39.2055 19.8792 40.8632 21.6318 40.8633 23.792C40.8633 25.9523 39.209 27.7058 37.1631 27.7061C35.1205 27.7061 33.4658 25.9524 33.4658 23.792C33.4659 21.6316 35.1205 19.8789 37.1631 19.8789Z" fill="#EEEEEE"/>
</svg>
