<svg width="300" height="300" viewBox="0 0 300 300" fill="none" xmlns="http://www.w3.org/2000/svg">
<path d="M292.718 179.441L154.633 45.1332C152.865 43.3867 149.844 44.6261 149.844 47.105V111.16C149.844 111.893 150.129 112.625 150.699 113.132L222.934 183.385C223.447 183.892 224.188 184.173 224.929 184.173H290.779C293.288 184.173 294.542 181.131 292.775 179.385L292.718 179.441Z" fill="#EEEEEE"/>
<path d="M77.0389 112.34H146.994C148.533 112.34 149.787 113.58 149.787 115.101V181.41C149.787 182.931 151.041 184.17 152.581 184.17H220.825C222.364 184.17 223.619 185.409 223.619 186.931V253.239C223.619 254.761 222.364 256 220.825 256H152.581C151.041 256 149.787 254.761 149.787 253.239V190.818C149.787 188.339 146.765 187.1 144.998 188.846L80.6878 251.38C78.9204 253.127 75.8987 251.887 75.8987 249.409V186.987C75.8987 185.466 74.6444 184.226 73.1051 184.226H8.90878C6.40022 184.226 5.14594 181.184 6.91333 179.438L75.1005 113.129C75.6136 112.622 76.3548 112.34 77.096 112.34H77.0389Z" fill="#EEEEEE"/>
</svg>
