<svg width="73" height="73" viewBox="0 0 73 73" fill="none" xmlns="http://www.w3.org/2000/svg">
<path d="M36.1543 0C56.1218 0 72.3085 16.1868 72.3086 36.1543C72.3086 56.1218 56.1218 72.3086 36.1543 72.3086C16.1868 72.3085 0 56.1218 0 36.1543C5.36022e-05 16.1869 16.1869 5.36055e-05 36.1543 0ZM39.1582 24.585L38.7441 38.0342H36.292L35.9639 27.3896L28.3682 27.1562L26.5117 32.9492H28.3818L25.2139 45.4619L16.4375 54.4609H19.251V56.334H53.0664V54.4609H55.8809L47.1025 45.4619L43.9365 32.9492H45.8066L43.0869 24.4648L39.1582 24.585ZM22.5078 24.5254V26.9775L28.3613 27.1582L29.2705 24.3164L22.5078 24.5254ZM33.5781 10.7539L33.2188 22.4346L35.1797 21.6152H37.1475L42.9541 24.043L43.0908 24.4727L49.8076 24.2646V21.8125L36.3584 21.3984L36.0303 10.7539H33.5781ZM29.3721 24.042L29.2812 24.3203L33.1631 24.2021L33.2178 22.4336L29.3721 24.042Z" fill="#EEEEEE"/>
</svg>
