<svg width="632" height="253" viewBox="0 0 632 253" fill="none" xmlns="http://www.w3.org/2000/svg">
<path d="M38.7895 233.655C21.9995 233.655 10.7031 223.351 10.7031 205.951C10.7031 188.551 22.1539 178.093 38.7895 178.093C52.5275 178.093 62.6765 185.035 65.7286 197.096H56.3444C53.9763 190.382 48.0266 186.491 38.7895 186.491C26.2724 186.491 19.8593 193.287 19.8593 205.951C19.8593 218.615 26.1915 225.256 38.7895 225.256C48.1002 225.256 53.9028 221.52 56.2635 214.798H65.7286C61.9926 228.154 51.3802 233.648 38.7895 233.648V233.655ZM106.773 233.655C89.9834 233.655 78.687 223.351 78.687 205.951C78.687 188.551 90.1378 178.093 106.773 178.093C123.409 178.093 135.014 188.396 135.014 205.797C135.014 223.197 123.872 233.655 106.773 233.655ZM106.773 225.264C119.519 225.264 125.851 218.24 125.851 205.958C125.851 193.677 119.364 186.499 106.773 186.499C94.1827 186.499 87.8432 193.294 87.8432 205.958C87.8432 218.623 94.1754 225.264 106.773 225.264ZM148.017 232.743V179.321H155.879L186.179 217.939V179.321H194.952V232.743H187.245L156.791 194.28V232.743H148.017ZM231.68 233.655C214.89 233.655 207.639 226.712 208.095 215.416L217.56 215.262C217.56 222.44 221.377 225.256 231.68 225.256C241.219 225.256 245.418 222.359 245.418 217.549C245.418 213.276 243.815 211.445 233.967 210.069L226.87 209.077C214.964 207.473 208.095 203.428 208.095 193.507C208.095 183.586 216.258 178.321 230.452 178.093C245.72 178.247 253.273 184.425 252.89 195.493H243.653C243.653 189.007 239.299 186.41 230.452 186.41C221.605 186.41 217.097 189.007 217.097 193.353C217.097 197.699 219.082 199.156 227.856 200.45L235.335 201.516C248.463 203.421 254.722 207.848 254.722 217.622C254.722 227.396 246.632 233.648 231.746 233.648H231.673L231.68 233.655ZM285.044 232.743V187.793H265.047V179.321H314.042V187.793H293.972V232.743H285.044ZM335.921 232.743L326.993 232.589V179.321H348.438C359.735 179.321 370.34 182.829 370.34 195.118C370.34 201.605 367.214 206.488 360.956 209.084L374.238 232.743H363.934L352.182 211.143C350.887 211.371 349.586 211.371 348.291 211.371H335.929V232.743H335.921ZM348.821 202.98C358.815 202.98 361.257 200.612 361.257 195.118C361.257 189.926 358.587 187.639 348.284 187.639H335.921V202.98H348.821ZM407.524 233.655C392.565 233.655 384.475 226.404 384.173 210.915V179.321H393.175V211.143C393.175 220.991 397.066 225.264 407.597 225.264C418.129 225.264 421.946 221.145 421.946 211.143V179.321H430.874V211.07C430.874 226.565 422.1 233.662 407.516 233.662L407.524 233.655ZM471.889 233.655L471.661 234.574C474.868 235.339 476.544 237.325 476.544 240.524C476.544 245.179 472.426 248.003 465.704 247.849L465.395 243.422C469.058 243.495 470.889 242.502 470.889 240.671C470.889 239.906 470.661 239.377 470.051 238.994C469.367 238.538 467.91 238.229 465.469 238.001L466.616 233.273C452.805 231.287 443.876 221.447 443.876 205.951C443.876 188.477 455.327 178.093 471.963 178.093C485.701 178.093 495.85 185.035 498.902 197.096H489.518C487.15 190.382 481.2 186.491 471.963 186.491C459.446 186.491 453.04 193.287 453.04 205.951C453.04 218.615 459.372 225.256 471.963 225.256C481.273 225.256 487.076 221.52 489.437 214.798H498.902C495.158 228.154 484.553 233.648 471.882 233.648L471.889 233.655ZM506.874 232.743L532.136 179.321H539.77L564.951 232.743H555.03L548.088 217.858H523.59L516.721 232.743H506.874ZM527.474 209.54H544.337L535.865 191.147L527.466 209.54H527.474ZM523.127 176.953C522.59 172.069 525.642 168.024 530.07 168.024C533.578 168.024 535.027 170.775 537.623 170.775C538.689 170.775 539.38 169.782 539.454 167.414L544.874 167.951C545.33 173.062 542.204 176.806 537.851 176.806C533.732 176.806 532.967 174.055 530.298 174.055C529.305 174.055 528.54 174.893 528.54 177.335L523.12 176.953H523.127ZM599.135 233.655C582.345 233.655 571.048 223.351 571.048 205.951C571.048 188.551 582.499 178.093 599.135 178.093C615.77 178.093 627.375 188.396 627.375 205.797C627.375 223.197 616.234 233.655 599.135 233.655ZM599.135 225.264C611.88 225.264 618.212 218.24 618.212 205.958C618.212 193.677 611.725 186.499 599.135 186.499C586.544 186.499 580.205 193.294 580.205 205.958C580.205 218.623 586.537 225.264 599.135 225.264Z" fill="#EEEEEE"/>
<path d="M83.0447 7.14361C123.987 7.14361 154.051 29.7436 160.236 68.9793H122.92C119.721 51.9171 106.285 41.9004 83.0447 41.9004C54.2597 41.9004 41.6763 55.1236 41.6763 84.5485C41.6763 113.547 54.0464 126.77 83.0447 126.77C106.498 126.77 119.294 117.599 122.92 100.331H160.236C150.639 146.818 117.588 161.74 83.0447 161.74C36.7709 161.74 5 132.742 5 84.5485C5 36.1419 37.1975 7.14361 83.0447 7.14361ZM419.772 139.074C409.653 153.363 389.708 161.74 362.055 161.74H361.842C312.796 161.74 293.181 139.567 295.954 102.03L333.91 101.39C333.91 123.563 341.801 126.763 361.842 126.763C379.971 126.763 389.987 123.35 389.987 113.966C389.987 105.861 389.347 105.008 366.747 101.809L348.626 99.2499C316.215 94.7711 295.101 82.6216 295.101 52.9761C295.101 23.3306 319.407 7.55546 358.643 7.12891C403.85 7.55546 424.317 28.0301 421.971 64.7064L384.229 64.9196C384.229 44.8716 374.205 41.6724 358.856 41.6724C341.375 41.6724 331.564 44.6583 331.564 52.5496C331.564 60.0143 332.63 60.8674 353.098 63.8533L372.079 66.6258C408.116 71.9578 427.303 85.1736 427.303 114.179C427.303 118.555 426.752 122.688 425.685 126.564L480.748 10.1221H508.68L549.07 95.7933C544.584 101.971 541.936 109.568 541.936 117.783C541.936 137.684 557.461 153.959 577.061 155.165L579.054 159.387H538.752L521.263 121.644H467.524L450.036 159.387H410.16L419.765 139.067L419.772 139.074ZM307.898 159.394H267.596L250.107 121.651H196.368L178.88 159.394H139.004L209.584 10.1295H237.516L307.883 159.394H307.898ZM212.577 86.8872H234.324L223.234 63.2208L212.57 86.8872H212.577ZM483.726 86.8872H505.48L494.39 63.2208L483.726 86.8872Z" fill="#EEEEEE"/>
<path d="M576.382 159.175C553.554 159.175 534.984 140.605 534.984 117.777C534.984 94.9487 553.554 76.3789 576.382 76.3789C599.21 76.3789 617.78 94.9487 617.78 117.777C617.78 140.605 599.21 159.175 576.382 159.175ZM576.382 84.2628C557.901 84.2628 542.868 99.2952 542.868 117.777C542.868 136.258 557.901 151.291 576.382 151.291C594.864 151.291 609.896 136.258 609.896 117.777C609.896 99.2952 594.864 84.2628 576.382 84.2628Z" fill="#EEEEEE"/>
<path d="M575.47 142.247C566.064 142.247 559.938 136.901 559.938 128.634C559.938 124.001 561.931 120.868 568.844 115.735C564.784 110.822 563.784 108.108 563.784 105.115C563.784 97.709 568.344 93.2891 575.897 93.2891C582.596 93.2891 587.509 97.562 587.509 103.622C587.509 107.615 585.869 110.675 580.809 114.308L577.742 116.514L587.436 127.987C588.649 125.347 589.289 122.427 589.289 119.154H595.562C595.562 124.714 594.349 129.414 591.642 133.12L598.769 141.666H590.576L587.509 138.107C584.303 140.813 579.956 142.24 575.47 142.24V142.247ZM575.47 136.548C578.39 136.548 581.17 135.408 583.589 133.341L572.69 120.302L571.903 120.802C568.344 123.435 566.704 125.935 566.704 128.642C566.704 133.628 569.91 136.548 575.47 136.548ZM577.537 109.616C580.456 107.623 581.096 106.27 581.096 103.629C581.096 100.849 579.029 99.0696 575.823 99.0696C572.403 99.0696 570.55 101.349 570.55 104.916C570.55 106.909 571.763 109.263 574.043 112.116L577.537 109.623V109.616Z" fill="#EEEEEE"/>
</svg>
