<svg width="73" height="73" viewBox="0 0 73 73" fill="none" xmlns="http://www.w3.org/2000/svg">
<path d="M36.1543 0C56.1218 0 72.3085 16.1868 72.3086 36.1543C72.3086 56.1218 56.1218 72.3086 36.1543 72.3086C16.1868 72.3085 0 56.1218 0 36.1543C5.36022e-05 16.1869 16.1869 5.36055e-05 36.1543 0ZM34.1699 24.7314H10.0469V50.2188H62.2695V24.7314H38.1475V20.0898H34.1699V24.7314ZM31.3555 46.6113H16.835L24.0938 40.0273H24.0967L31.3555 46.6113ZM55.4785 46.6113H40.958L48.2168 40.0273H48.2197L55.4785 46.6113ZM34.166 44.0615L26.9072 37.4775V37.4746L34.166 30.8916V44.0615ZM58.2891 44.0615L51.0303 37.4775V37.4746L58.2891 30.8916V44.0615ZM21.2832 37.4717V37.4746L14.0244 44.0586V30.8887L21.2832 37.4717ZM45.4062 37.4746L38.1475 44.0586V30.8916L45.4062 37.4746ZM24.0967 34.9229L16.8379 28.3389H31.3555L24.0967 34.9229ZM48.2197 34.9229L40.9609 28.3389H55.4785L48.2197 34.9229Z" fill="#EEEEEE"/>
</svg>
