<svg width="196" height="87" viewBox="0 0 196 87" fill="none" xmlns="http://www.w3.org/2000/svg">
<g clip-path="url(#clip0_62_200)">
<path d="M19.9284 85.0186C19.4865 85.0186 19.0925 84.953 18.7402 84.8216C18.3939 84.6902 18.1013 84.5171 17.8684 84.2962C17.6356 84.0752 17.4445 83.8125 17.2893 83.508C17.134 83.1975 17.0266 82.8751 16.9609 82.5407C16.8952 82.2064 16.8594 81.8422 16.8594 81.46V77.8536H17.9819V81.46C17.9819 81.7347 18.0058 81.9855 18.0416 82.2243C18.0834 82.4631 18.1491 82.696 18.2446 82.9169C18.3401 83.1378 18.4596 83.3289 18.6088 83.4841C18.7521 83.6394 18.9372 83.7648 19.1641 83.8603C19.385 83.9558 19.6418 84.0036 19.9284 84.0036C20.215 84.0036 20.4777 83.9558 20.7046 83.8603C20.9315 83.7588 21.1166 83.6334 21.2599 83.4722C21.4032 83.3169 21.5226 83.1259 21.6122 82.899C21.7077 82.6781 21.7734 82.4452 21.8092 82.2123C21.851 81.9735 21.8689 81.7227 21.8689 81.454V77.8477H23.0034V81.454C23.0034 81.9496 22.9437 82.4153 22.8242 82.8333C22.7048 83.2572 22.5317 83.6274 22.2869 83.9558C22.048 84.2842 21.7256 84.5469 21.3196 84.732C20.9136 84.9171 20.4479 85.0127 19.9164 85.0127" fill="white"/>
<path d="M27.6303 79.9393V84.9727H26.5078V77.8555H27.4273L31.4576 82.9964V77.8614H32.5921V84.9727H31.6129L27.6303 79.9393Z" fill="white"/>
<path d="M37.3178 77.8477H36.1953V84.9649H37.3178V77.8477Z" fill="white"/>
<path d="M44.6555 82.2075L43.5151 79.0907L42.3329 82.2075H44.6555ZM42.8523 76.5233C42.7449 76.5233 42.6553 76.5471 42.5896 76.5889C42.518 76.6367 42.4702 76.6904 42.4344 76.7502C42.4045 76.8158 42.3866 76.8636 42.3747 76.9054C42.3687 76.9472 42.3627 76.977 42.3627 77.0009H41.7418C41.7418 76.9532 41.7537 76.8875 41.7716 76.8039C41.7955 76.7143 41.8313 76.6188 41.8851 76.5113C41.9328 76.3979 42.0045 76.2964 42.0821 76.1949C42.1597 76.0993 42.2612 76.0157 42.3926 75.9501C42.518 75.8844 42.6613 75.8485 42.8165 75.8485C42.9837 75.8485 43.1449 75.8844 43.2942 75.962C43.4435 76.0336 43.5868 76.1053 43.7241 76.1829C43.8614 76.2546 43.9987 76.2904 44.1301 76.2904C44.2197 76.2904 44.3032 76.2785 44.3689 76.2426C44.4346 76.2128 44.4943 76.171 44.5301 76.1292C44.566 76.0874 44.5958 76.0396 44.6197 75.9859C44.6436 75.9381 44.6555 75.8963 44.6615 75.8665C44.6615 75.8366 44.6615 75.8127 44.6615 75.8008H45.2944C45.2944 75.8426 45.2825 75.9023 45.2646 75.9859C45.2407 76.0695 45.1989 76.165 45.1451 76.2785C45.0854 76.3979 45.0198 76.4994 44.9362 76.6009C44.8526 76.6964 44.7451 76.78 44.6078 76.8517C44.4645 76.9233 44.3152 76.9591 44.148 76.9591C43.9808 76.9591 43.8136 76.9233 43.6524 76.8517C43.4972 76.78 43.3539 76.7084 43.2166 76.6367C43.0852 76.5651 42.9658 76.5292 42.8464 76.5292M42.9837 77.8548H44.0465L46.811 84.972H45.6288L44.8824 83.0374H42.1358L41.3895 84.972H40.1953L42.9837 77.8548Z" fill="white"/>
<path d="M52.39 84.0024C52.7364 84.0024 53.0528 83.9308 53.3454 83.7815C53.6379 83.6263 53.8768 83.4292 54.0619 83.1844C54.247 82.9396 54.3903 82.665 54.4918 82.3545C54.5933 82.05 54.647 81.7335 54.647 81.4111C54.647 81.0887 54.5933 80.7483 54.4858 80.4438C54.3783 80.1333 54.2291 79.8527 54.038 79.6139C53.8469 79.375 53.6081 79.184 53.3215 79.0407C53.0349 78.8974 52.7304 78.8257 52.396 78.8257C52.0497 78.8257 51.7273 78.8974 51.4347 79.0466C51.1421 79.1959 50.9033 79.3929 50.7122 79.6377C50.5271 79.8825 50.3779 80.1572 50.2704 80.4677C50.1629 80.7722 50.1152 81.0887 50.1152 81.4111C50.1152 81.8589 50.2047 82.2828 50.3838 82.6769C50.563 83.065 50.8317 83.3815 51.1839 83.6322C51.5362 83.883 51.9363 84.0024 52.39 84.0024ZM48.9688 81.4111C48.9688 80.9394 49.0523 80.4856 49.2315 80.0497C49.4046 79.6139 49.6435 79.2257 49.942 78.8974C50.2405 78.569 50.6048 78.3003 51.0347 78.1032C51.4586 77.9062 51.9124 77.8047 52.396 77.8047C52.8797 77.8047 53.3514 77.9122 53.7813 78.1152C54.2112 78.3242 54.5754 78.5988 54.862 78.9392C55.1545 79.2855 55.3814 79.6676 55.5486 80.0975C55.7158 80.5334 55.7994 80.9692 55.7994 81.417C55.7994 81.8887 55.7158 82.3425 55.5367 82.7784C55.3635 83.2202 55.1307 83.5964 54.8261 83.9308C54.5336 84.2592 54.1694 84.5219 53.7454 84.7189C53.3155 84.916 52.8617 85.0175 52.3781 85.0175C51.984 85.0175 51.6019 84.9518 51.2436 84.8204C50.8854 84.6891 50.5689 84.5099 50.2943 84.2771C50.0196 84.0442 49.7868 83.7755 49.5897 83.477C49.3867 83.1725 49.2374 82.8441 49.13 82.4918C49.0225 82.1395 48.9688 81.7813 48.9688 81.417" fill="white"/>
<path d="M68.3079 83.9756V84.9727H63.4297V77.8555H68.2243V78.8526H64.5522V80.8648H67.7287V81.8082H64.5522V83.9756H68.3079Z" fill="white"/>
<path d="M77.0678 81.5037H79.0382C79.3487 81.5037 79.6054 81.3723 79.8084 81.1156C80.0055 80.8528 80.113 80.5424 80.113 80.1722C80.113 79.802 79.9995 79.4975 79.7666 79.2407C79.5398 78.984 79.2711 78.8526 78.9725 78.8526H77.0678V81.5096V81.5037ZM75.9453 84.9727V77.8555H79.0442C79.3547 77.8555 79.6532 77.9211 79.9279 78.0525C80.2085 78.1898 80.4414 78.363 80.6324 78.5839C80.8235 78.7989 80.9728 79.0496 81.0862 79.3303C81.1937 79.6049 81.2474 79.8856 81.2474 80.1722C81.2474 80.6558 81.122 81.0917 80.8653 81.4857C80.6145 81.8738 80.2742 82.1366 79.8622 82.2679L81.534 84.9727H80.2682L78.7218 82.4948H77.0678V84.9727H75.9453Z" fill="white"/>
<path d="M89.4563 83.9756V84.9727H84.5781V77.8555H89.3667V78.8526H85.6947V80.8648H88.8712V81.8082H85.6947V83.9756H89.4563Z" fill="white"/>
<path d="M95.4764 77.8125C96.0974 77.8125 96.6467 77.9558 97.1184 78.2364C97.5901 78.523 97.9424 78.8992 98.1812 79.3649L97.3035 79.956C97.208 79.753 97.0885 79.5739 96.9452 79.4187C96.8019 79.2634 96.6467 79.144 96.4736 79.0664C96.3064 78.9828 96.1332 78.9231 95.9601 78.8813C95.7929 78.8455 95.6138 78.8216 95.4346 78.8216C95.148 78.8216 94.8793 78.8693 94.6345 78.9708C94.3897 79.0723 94.1748 79.2097 94.0016 79.3709C93.8225 79.5381 93.6732 79.7351 93.5478 79.956C93.4165 80.177 93.3269 80.4098 93.2612 80.6546C93.2015 80.8994 93.1717 81.1502 93.1717 81.401C93.1717 81.8607 93.2732 82.2966 93.4642 82.6907C93.6553 83.0907 93.93 83.4131 94.2882 83.6579C94.6405 83.8968 95.0346 84.0222 95.4705 84.0222C95.7153 84.0222 95.9541 83.9804 96.187 83.9087C96.4198 83.8311 96.6467 83.6997 96.8617 83.5206C97.0766 83.3415 97.2498 83.1146 97.3632 82.8519L98.3006 83.3833C98.1573 83.7177 97.9304 84.0162 97.614 84.2789C97.2975 84.5357 96.9452 84.7267 96.5691 84.8521C96.1869 84.9775 95.8048 85.0372 95.4287 85.0372C94.951 85.0372 94.4912 84.9357 94.0613 84.7208C93.6374 84.5058 93.2732 84.2312 92.9806 83.8848C92.688 83.5326 92.4552 83.1445 92.288 82.7026C92.1208 82.2608 92.0312 81.8189 92.0312 81.3711C92.0312 81.0248 92.079 80.6845 92.1745 80.3382C92.276 79.9978 92.4194 79.6754 92.6164 79.3769C92.8194 79.0723 93.0463 78.8037 93.3209 78.5768C93.5956 78.3439 93.9121 78.1648 94.2882 78.0275C94.6584 77.8901 95.0525 77.8244 95.4764 77.8244" fill="white"/>
<path d="M104.21 84.0024C104.557 84.0024 104.873 83.9308 105.166 83.7815C105.458 83.6263 105.697 83.4292 105.882 83.1844C106.067 82.9396 106.211 82.665 106.312 82.3545C106.414 82.05 106.467 81.7335 106.467 81.4111C106.467 81.0887 106.414 80.7483 106.306 80.4438C106.199 80.1333 106.049 79.8527 105.858 79.6139C105.667 79.375 105.428 79.184 105.142 79.0407C104.855 78.8974 104.551 78.8257 104.216 78.8257C103.87 78.8257 103.548 78.8974 103.255 79.0466C102.962 79.1959 102.724 79.3929 102.533 79.6377C102.347 79.8825 102.198 80.1572 102.091 80.4677C101.989 80.7722 101.935 81.0887 101.935 81.4111C101.935 81.8589 102.025 82.2828 102.204 82.6769C102.383 83.065 102.652 83.3815 103.004 83.6322C103.357 83.883 103.757 84.0024 104.21 84.0024ZM100.789 81.4111C100.789 80.9394 100.873 80.4856 101.052 80.0497C101.225 79.6139 101.464 79.2257 101.762 78.8974C102.061 78.569 102.425 78.3003 102.855 78.1032C103.279 77.9062 103.733 77.8047 104.216 77.8047C104.7 77.8047 105.172 77.9122 105.602 78.1152C106.031 78.3242 106.396 78.5988 106.682 78.9392C106.975 79.2855 107.202 79.6676 107.369 80.0975C107.536 80.5334 107.62 80.9692 107.62 81.417C107.62 81.8887 107.536 82.3425 107.357 82.7784C107.184 83.2202 106.951 83.5964 106.646 83.9308C106.354 84.2592 105.99 84.5219 105.566 84.7189C105.136 84.916 104.682 85.0175 104.198 85.0175C103.804 85.0175 103.422 84.9518 103.064 84.8204C102.706 84.6891 102.389 84.5099 102.115 84.2771C101.84 84.0442 101.607 83.7755 101.41 83.477C101.207 83.1725 101.058 82.8441 100.95 82.4918C100.843 82.1395 100.789 81.7813 100.789 81.417" fill="white"/>
<path d="M111.912 79.9393V84.9727H110.789V77.8555H111.709L115.739 82.9964V77.8614H116.873V84.9727H115.888L111.912 79.9393Z" fill="white"/>
<path d="M124.69 79.5245C124.535 79.3573 124.278 79.1961 123.908 79.0349C123.538 78.8737 123.162 78.7961 122.768 78.7961C122.308 78.7961 121.956 78.8797 121.723 79.0528C121.496 79.226 121.376 79.4648 121.376 79.7813C121.376 79.8828 121.388 79.9664 121.418 80.0499C121.448 80.1276 121.478 80.1932 121.52 80.253C121.562 80.3186 121.621 80.3783 121.699 80.4321C121.782 80.4858 121.86 80.5336 121.944 80.5754C122.027 80.6172 122.135 80.659 122.272 80.7008C122.415 80.7426 122.541 80.7844 122.66 80.8082C122.786 80.8381 122.941 80.8799 123.138 80.9336C123.448 81.0053 123.717 81.0829 123.938 81.1545C124.159 81.2262 124.374 81.3217 124.577 81.4352C124.786 81.5427 124.947 81.668 125.072 81.8113C125.198 81.9487 125.293 82.1218 125.371 82.3129C125.443 82.5099 125.478 82.7368 125.478 82.9936C125.478 83.2802 125.431 83.5369 125.341 83.7638C125.252 83.9907 125.126 84.1877 124.977 84.337C124.816 84.4982 124.625 84.6296 124.41 84.7311C124.189 84.8386 123.944 84.9162 123.693 84.9639C123.442 85.0117 123.162 85.0356 122.875 85.0356C122.332 85.0356 121.806 84.952 121.305 84.7848C120.797 84.6236 120.344 84.3788 119.938 84.0743L120.451 83.107C120.654 83.322 120.988 83.525 121.46 83.722C121.92 83.919 122.403 84.0146 122.899 84.0146C123.341 84.0146 123.681 83.937 123.926 83.7757C124.165 83.6205 124.284 83.3936 124.284 83.101C124.284 82.9816 124.266 82.8801 124.231 82.7846C124.201 82.6891 124.135 82.6055 124.045 82.5278C123.962 82.4502 123.866 82.3845 123.777 82.3308C123.681 82.2771 123.55 82.2174 123.377 82.1577C123.204 82.0979 123.048 82.0502 122.905 82.0143C122.762 81.9726 122.577 81.9248 122.332 81.8591C121.956 81.7636 121.645 81.6621 121.4 81.5606C121.156 81.4591 120.941 81.3396 120.75 81.1904C120.564 81.0471 120.427 80.8739 120.344 80.6709C120.26 80.4739 120.218 80.235 120.218 79.9604C120.218 79.62 120.284 79.3096 120.415 79.0349C120.547 78.7602 120.726 78.5333 120.959 78.3483C121.191 78.1691 121.46 78.0318 121.782 77.9363C122.093 77.8407 122.433 77.793 122.804 77.793C123.681 77.793 124.481 78.0617 125.204 78.5931L124.696 79.5126L124.69 79.5245Z" fill="white"/>
<path d="M133.828 78.8466H131.464V84.9727H130.324V78.8466H127.953V77.8555H133.828V78.8466Z" fill="white"/>
<path d="M137.904 81.5037H139.874C140.185 81.5037 140.441 81.3723 140.644 81.1156C140.841 80.8528 140.949 80.5424 140.949 80.1722C140.949 79.802 140.829 79.4975 140.603 79.2407C140.376 78.984 140.107 78.8526 139.808 78.8526H137.904V81.5096V81.5037ZM136.787 84.9727V77.8555H139.886C140.197 77.8555 140.495 77.9211 140.77 78.0525C141.05 78.1898 141.283 78.363 141.474 78.5839C141.665 78.7989 141.815 79.0496 141.928 79.3303C142.036 79.6049 142.089 79.8856 142.089 80.1722C142.089 80.6558 141.964 81.0917 141.707 81.4857C141.456 81.8738 141.116 82.1366 140.698 82.2679L142.37 84.9727H141.104L139.558 82.4948H137.904V84.9727H136.781H136.787Z" fill="white"/>
<path d="M148.364 85.0186C147.922 85.0186 147.528 84.953 147.176 84.8216C146.83 84.6902 146.537 84.5171 146.304 84.2962C146.065 84.0752 145.88 83.8125 145.725 83.508C145.57 83.1975 145.462 82.8751 145.391 82.5407C145.325 82.2064 145.289 81.8422 145.289 81.46V77.8536H146.412V81.46C146.412 81.7347 146.435 81.9855 146.471 82.2243C146.513 82.4631 146.579 82.696 146.674 82.9169C146.77 83.1378 146.889 83.3289 147.039 83.4841C147.182 83.6394 147.367 83.7648 147.594 83.8603C147.815 83.9558 148.071 84.0036 148.358 84.0036C148.645 84.0036 148.907 83.9558 149.134 83.8603C149.361 83.7588 149.546 83.6334 149.69 83.4722C149.833 83.3169 149.952 83.1259 150.042 82.899C150.137 82.6781 150.203 82.4452 150.239 82.2123C150.281 81.9735 150.299 81.7227 150.299 81.454V77.8477H151.433V81.454C151.433 81.9496 151.373 82.4153 151.254 82.8333C151.135 83.2572 150.961 83.6274 150.717 83.9558C150.478 84.2842 150.155 84.5469 149.749 84.732C149.343 84.9171 148.878 85.0127 148.346 85.0127" fill="white"/>
<path d="M160.756 83.375C160.576 83.8109 160.254 84.1751 159.812 84.4617C159.364 84.7483 158.875 84.9275 158.349 84.9991C158.69 85.2917 158.863 85.6141 158.863 85.9664C158.863 86.253 158.767 86.4858 158.57 86.653C158.379 86.8262 158.111 86.9098 157.764 86.9098C157.358 86.9098 156.964 86.8142 156.588 86.6232L156.869 86.0321C157.125 86.1754 157.358 86.247 157.573 86.247C157.764 86.247 157.913 86.2052 158.015 86.1276C158.122 86.044 158.176 85.9306 158.176 85.7753C158.176 85.5126 157.997 85.2678 157.639 85.0349C157.185 84.9991 156.761 84.8677 156.367 84.6409C155.973 84.4199 155.639 84.1333 155.364 83.799C155.089 83.4586 154.88 83.0765 154.725 82.6585C154.57 82.2346 154.492 81.8107 154.492 81.3808C154.492 81.0345 154.54 80.6941 154.635 80.3538C154.737 80.0135 154.886 79.691 155.077 79.3865C155.274 79.088 155.507 78.8193 155.782 78.5864C156.057 78.3536 156.373 78.1685 156.749 78.0311C157.125 77.8938 157.513 77.8281 157.937 77.8281C158.564 77.8281 159.108 77.9714 159.579 78.252C160.051 78.5327 160.409 78.9088 160.642 79.3805L159.764 79.9717C159.669 79.7686 159.549 79.5895 159.406 79.4343C159.263 79.285 159.108 79.1656 158.934 79.082C158.767 78.9984 158.594 78.9387 158.427 78.9029C158.254 78.8611 158.081 78.8432 157.896 78.8432C157.609 78.8432 157.34 78.8909 157.095 78.9924C156.851 79.0939 156.636 79.2253 156.463 79.3925C156.283 79.5597 156.134 79.7507 156.009 79.9717C155.883 80.1926 155.788 80.4314 155.728 80.6762C155.662 80.921 155.639 81.1658 155.639 81.4166C155.639 81.8764 155.734 82.3063 155.931 82.7063C156.128 83.1063 156.397 83.4228 156.755 83.6676C157.107 83.9124 157.501 84.0318 157.931 84.0318C158.176 84.0318 158.415 83.996 158.648 83.9184C158.887 83.8408 159.108 83.7154 159.323 83.5303C159.538 83.3512 159.711 83.1302 159.824 82.8615L160.756 83.3929V83.375Z" fill="white"/>
<path d="M167.429 82.2075L166.289 79.0907L165.106 82.2075H167.435H167.429ZM165.626 76.5233C165.524 76.5233 165.429 76.5471 165.363 76.5889C165.291 76.6367 165.238 76.6904 165.208 76.7502C165.178 76.8158 165.16 76.8636 165.148 76.9054C165.136 76.9472 165.136 76.977 165.136 77.0009H164.515C164.515 76.9532 164.527 76.8875 164.545 76.8039C164.569 76.7143 164.605 76.6188 164.658 76.5113C164.706 76.3979 164.778 76.2964 164.856 76.1949C164.933 76.0993 165.035 76.0157 165.166 75.9501C165.291 75.8844 165.435 75.8485 165.59 75.8485C165.757 75.8485 165.918 75.8844 166.068 75.962C166.217 76.0336 166.36 76.1053 166.498 76.1829C166.635 76.2546 166.772 76.2904 166.904 76.2904C166.993 76.2904 167.077 76.2785 167.142 76.2426C167.208 76.2128 167.268 76.171 167.304 76.1292C167.339 76.0874 167.369 76.0396 167.393 75.9859C167.417 75.9381 167.429 75.8963 167.435 75.8665C167.435 75.8366 167.435 75.8127 167.435 75.8008H168.068C168.068 75.8426 168.056 75.9023 168.038 75.9859C168.014 76.0695 167.972 76.165 167.919 76.2785C167.859 76.3979 167.793 76.4994 167.71 76.6009C167.626 76.6964 167.519 76.78 167.381 76.8517C167.238 76.9233 167.089 76.9591 166.921 76.9591C166.754 76.9591 166.587 76.9233 166.426 76.8517C166.265 76.78 166.127 76.7084 165.99 76.6367C165.859 76.5651 165.739 76.5292 165.62 76.5292M165.757 77.8548H166.82L169.584 84.972H168.402L167.656 83.0374H164.909L164.163 84.972H162.969L165.757 77.8548Z" fill="white"/>
<path d="M175.165 84.0024C175.512 84.0024 175.828 83.9308 176.115 83.7815C176.407 83.6263 176.646 83.4292 176.831 83.1844C177.016 82.9396 177.16 82.665 177.261 82.3545C177.363 82.05 177.416 81.7335 177.416 81.4111C177.416 81.0887 177.363 80.7483 177.255 80.4438C177.148 80.1333 176.998 79.8527 176.807 79.6139C176.616 79.375 176.377 79.184 176.091 79.0407C175.804 78.8974 175.5 78.8257 175.165 78.8257C174.813 78.8257 174.497 78.8974 174.21 79.0466C173.917 79.1959 173.673 79.3929 173.482 79.6377C173.296 79.8825 173.147 80.1572 173.04 80.4677C172.932 80.7722 172.884 81.0887 172.884 81.4111C172.884 81.8589 172.974 82.2828 173.153 82.6769C173.332 83.065 173.601 83.3815 173.953 83.6322C174.306 83.883 174.706 84.0024 175.159 84.0024M171.75 81.4111C171.75 80.9394 171.834 80.4856 172.013 80.0497C172.186 79.6139 172.425 79.2257 172.723 78.8974C173.022 78.569 173.386 78.3003 173.816 78.1032C174.24 77.9062 174.694 77.8047 175.177 77.8047C175.661 77.8047 176.127 77.9122 176.562 78.1152C176.998 78.3182 177.357 78.5988 177.643 78.9392C177.936 79.2855 178.163 79.6676 178.33 80.0975C178.497 80.5334 178.581 80.9692 178.581 81.417C178.581 81.8887 178.497 82.3425 178.318 82.7784C178.145 83.2202 177.912 83.5964 177.607 83.9308C177.315 84.2592 176.951 84.5219 176.527 84.7189C176.097 84.916 175.643 85.0175 175.159 85.0175C174.765 85.0175 174.383 84.9518 174.025 84.8204C173.667 84.6891 173.35 84.5099 173.076 84.2771C172.801 84.0442 172.568 83.7755 172.371 83.477C172.168 83.1725 172.019 82.8441 171.911 82.4918C171.804 82.1395 171.75 81.7813 171.75 81.417" fill="white"/>
<path d="M54.9511 47.9258H36.2266V66.8354H67.2451L54.9511 47.9258Z" fill="#00CF00"/>
<path d="M14.945 66.8304H21.9249C29.8184 66.8304 36.2132 60.4356 36.2132 52.5421C36.2132 44.6487 29.8184 38.2539 21.9249 38.2539H0V66.8363H14.945V66.8304Z" fill="#FF0000"/>
<path d="M0 38.256H20.3247C25.6149 38.256 29.902 33.969 29.902 28.6788C29.902 23.3886 25.6149 19.1016 20.3247 19.1016H0V38.25V38.256Z" fill="#173DFF"/>
<path d="M86.5945 19.1016L58.2031 66.8325H114.986L86.5945 19.1016Z" fill="#FFCF00"/>
<path d="M178.761 19.1016H162.258V50.8008H178.761V19.1016Z" fill="#FFCF00"/>
<path d="M195.261 50.8008H178.758V66.8325H195.261V50.8008Z" fill="#173DFF"/>
<path d="M178.753 50.8008H162.25V66.8325H178.753V50.8008Z" fill="white"/>
<path d="M122.321 40.3164H106.719V66.8329H122.321V40.3164Z" fill="#FF0000"/>
<path d="M58.2109 66.8327H67.2448L62.5219 59.5781L58.2109 66.8327Z" fill="white"/>
<path d="M106.719 52.9453V66.8395H114.976L106.719 52.9453Z" fill="white"/>
<path d="M159.472 19.1016H142.969V66.8325H159.472V19.1016Z" fill="#00CF00"/>
<path d="M16.5034 19.1016H0V38.25H16.5034V19.1016Z" fill="#00CF00"/>
<path d="M49.9595 47.9288H54.9571C62.9162 47.9288 69.3707 41.4803 69.3707 33.5152C69.3707 25.5501 62.9222 19.1016 54.9571 19.1016H36.2266V47.9288H49.9655H49.9595Z" fill="#173DFF"/>
<path d="M140.181 19.1016H122.328V36.4588H140.181V19.1016Z" fill="#173DFF"/>
<path d="M127.778 36.4591H122.32V66.8328H127.778C136.167 66.8328 142.967 60.032 142.967 51.6429C142.967 43.2539 136.167 36.4531 127.778 36.4531" fill="#FFCF00"/>
<path d="M117.329 19.1016C111.472 19.1016 106.719 23.8484 106.719 29.7118C106.719 35.5751 111.472 40.316 117.329 40.316H122.327V19.1016H117.329Z" fill="#00CF00"/>
<path d="M16.5034 38.2539H0V66.8363H16.5034V38.2539Z" fill="#FFCF00"/>
<path d="M54.9511 47.9288L36.2266 19.1016V47.9288H54.9511Z" fill="#FFCF00"/>
<path d="M104.008 66.8328C104.008 57.2198 96.2097 49.4219 86.5907 49.4219C76.9716 49.4219 69.1797 57.2198 69.1797 66.8328H104.008Z" fill="#173DFF"/>
<path d="M25.8702 4.12379V4.83432C25.8702 7.65853 23.9775 9.49755 21.4697 9.49755C18.8067 9.49755 16.7109 7.41372 16.7109 4.76267C16.7109 2.11161 18.8186 0.00390625 21.4578 0.00390625C23.1236 0.00390625 24.6522 0.857735 25.494 2.25491L23.4162 3.49685C23.0161 2.77438 22.2817 2.36239 21.4279 2.36239C20.0964 2.36239 19.147 3.38937 19.147 4.77461C19.147 6.15984 20.0964 7.12115 21.4697 7.12115C22.425 7.12115 23.046 6.64348 23.255 6.05834H20.8189V4.12379H25.8702Z" fill="white"/>
<path d="M36.093 4.74682C36.093 3.46906 35.1735 2.50776 33.9913 2.50776C32.8091 2.50776 31.8418 3.46906 31.8418 4.74682C31.8418 6.02458 32.7732 6.98589 33.9913 6.98589C35.2093 6.98589 36.093 6.02458 36.093 4.74682ZM29.2266 4.74682C29.2266 2.10771 31.3343 0 33.9853 0C36.6364 0 38.7142 2.10771 38.7142 4.74682C38.7142 7.38593 36.6125 9.49364 33.9853 9.49364C31.3582 9.49364 29.2266 7.38593 29.2266 4.74682Z" fill="white"/>
<path d="M50.5111 0.214844L46.9644 9.27858H44.5283L41.0234 0.214844H43.6506L45.7523 5.80355L47.8899 0.214844H50.5111Z" fill="white"/>
<path d="M56.1493 2.43003V3.77346H58.8183V5.71996H56.1493V7.06937H60.1916V9.27858H53.6953V0.214844H60.1916V2.43003H56.1493Z" fill="white"/>
<path d="M66.3732 4.08579H68.0748C68.648 4.08579 69.0063 3.68574 69.0063 3.24987C69.0063 2.814 68.66 2.39604 68.0748 2.39604H66.3732V4.08579ZM67.4001 6.1517H66.3732V9.28639H63.9609V0.222656H68.3435C70.1169 0.222656 71.4782 1.48847 71.4782 3.16628C71.4782 4.32462 70.8453 5.28593 69.89 5.79345L71.9022 9.28639H69.1974L67.4001 6.1517Z" fill="white"/>
<path d="M83.3919 0.214844V9.27858H81.326L77.6778 4.50788V9.27858H75.2656V0.214844H77.3136L80.9797 4.99749V0.214844H83.3919Z" fill="white"/>
<path d="M93.7746 4.74682C93.7746 3.46906 92.8551 2.50776 91.6728 2.50776C90.4906 2.50776 89.5233 3.46906 89.5233 4.74682C89.5233 6.02458 90.4548 6.98589 91.6728 6.98589C92.8909 6.98589 93.7746 6.02458 93.7746 4.74682ZM86.9141 4.74682C86.9141 2.10771 89.0218 0 91.6728 0C94.3239 0 96.4017 2.10771 96.4017 4.74682C96.4017 7.38593 94.3 9.49364 91.6728 9.49364C89.0457 9.49364 86.9141 7.38593 86.9141 4.74682Z" fill="white"/>
<path d="M108.36 2.39007V3.92458H111.029V5.97855H108.36V9.28042H105.906V0.222656H112.403V2.39007H108.36Z" fill="white"/>
<path d="M118.524 2.43003V3.77346H121.187V5.71996H118.524V7.06937H122.561V9.27858H116.07V0.214844H122.561V2.43003H118.524Z" fill="white"/>
<path d="M132.329 4.74487C132.329 3.42531 131.344 2.57148 129.905 2.57148H128.8V6.91228H129.905C131.344 6.91228 132.329 6.05845 132.329 4.7389M134.86 4.74487C134.86 7.34219 132.777 9.27674 130.024 9.27674H126.328V0.207031H130.024C132.783 0.207031 134.86 2.14158 134.86 4.7389" fill="white"/>
<path d="M140.829 2.43003V3.77346H143.498V5.71996H140.829V7.06937H144.871V9.27858H138.375V0.214844H144.871V2.43003H140.829Z" fill="white"/>
<path d="M151.053 4.08579H152.755C153.328 4.08579 153.686 3.68574 153.686 3.24987C153.686 2.814 153.34 2.39604 152.755 2.39604H151.053V4.08579ZM152.08 6.1517H151.053V9.28639H148.641V0.222656H153.023C154.797 0.222656 156.158 1.48847 156.158 3.16628C156.158 4.32462 155.531 5.28593 154.57 5.79345L156.582 9.28639H153.877L152.08 6.1517Z" fill="white"/>
<path d="M165.121 5.56472L164.214 3.3376L163.306 5.56472H165.121ZM166.017 7.72019H162.428L161.801 9.27858H159.258L163.037 0.214844H165.36L169.187 9.27858H166.656L166.017 7.72019Z" fill="white"/>
<path d="M178.758 6.94995V9.27858H172.375V0.214844H174.948V6.94995H178.758Z" fill="white"/>
<path d="M25.8702 4.12379V4.83432C25.8702 7.65853 23.9775 9.49755 21.4697 9.49755C18.8067 9.49755 16.7109 7.41372 16.7109 4.76267C16.7109 2.11161 18.8186 0.00390625 21.4578 0.00390625C23.1236 0.00390625 24.6522 0.857735 25.494 2.25491L23.4162 3.49685C23.0161 2.77438 22.2817 2.36239 21.4279 2.36239C20.0964 2.36239 19.147 3.38937 19.147 4.77461C19.147 6.15984 20.0964 7.12115 21.4697 7.12115C22.425 7.12115 23.046 6.64348 23.255 6.05834H20.8189V4.12379H25.8702Z" fill="white"/>
<path d="M36.093 4.74682C36.093 3.46906 35.1735 2.50776 33.9913 2.50776C32.8091 2.50776 31.8418 3.46906 31.8418 4.74682C31.8418 6.02458 32.7732 6.98589 33.9913 6.98589C35.2093 6.98589 36.093 6.02458 36.093 4.74682ZM29.2266 4.74682C29.2266 2.10771 31.3343 0 33.9853 0C36.6364 0 38.7142 2.10771 38.7142 4.74682C38.7142 7.38593 36.6125 9.49364 33.9853 9.49364C31.3582 9.49364 29.2266 7.38593 29.2266 4.74682Z" fill="white"/>
<path d="M50.5111 0.214844L46.9644 9.27858H44.5283L41.0234 0.214844H43.6506L45.7523 5.80355L47.8899 0.214844H50.5111Z" fill="white"/>
<path d="M56.1493 2.43003V3.77346H58.8183V5.71996H56.1493V7.06937H60.1916V9.27858H53.6953V0.214844H60.1916V2.43003H56.1493Z" fill="white"/>
<path d="M66.3732 4.08579H68.0748C68.648 4.08579 69.0063 3.68574 69.0063 3.24987C69.0063 2.814 68.66 2.39604 68.0748 2.39604H66.3732V4.08579ZM67.4001 6.1517H66.3732V9.28639H63.9609V0.222656H68.3435C70.1169 0.222656 71.4782 1.48847 71.4782 3.16628C71.4782 4.32462 70.8453 5.28593 69.89 5.79345L71.9022 9.28639H69.1974L67.4001 6.1517Z" fill="white"/>
<path d="M83.3919 0.214844V9.27858H81.326L77.6778 4.50788V9.27858H75.2656V0.214844H77.3136L80.9797 4.99749V0.214844H83.3919Z" fill="white"/>
<path d="M93.7746 4.74682C93.7746 3.46906 92.8551 2.50776 91.6728 2.50776C90.4906 2.50776 89.5233 3.46906 89.5233 4.74682C89.5233 6.02458 90.4548 6.98589 91.6728 6.98589C92.8909 6.98589 93.7746 6.02458 93.7746 4.74682ZM86.9141 4.74682C86.9141 2.10771 89.0218 0 91.6728 0C94.3239 0 96.4017 2.10771 96.4017 4.74682C96.4017 7.38593 94.3 9.49364 91.6728 9.49364C89.0457 9.49364 86.9141 7.38593 86.9141 4.74682Z" fill="white"/>
<path d="M108.36 2.39007V3.92458H111.029V5.97855H108.36V9.28042H105.906V0.222656H112.403V2.39007H108.36Z" fill="white"/>
<path d="M118.524 2.43003V3.77346H121.187V5.71996H118.524V7.06937H122.561V9.27858H116.07V0.214844H122.561V2.43003H118.524Z" fill="white"/>
<path d="M132.329 4.74487C132.329 3.42531 131.344 2.57148 129.905 2.57148H128.8V6.91228H129.905C131.344 6.91228 132.329 6.05845 132.329 4.7389M134.86 4.74487C134.86 7.34219 132.777 9.27674 130.024 9.27674H126.328V0.207031H130.024C132.783 0.207031 134.86 2.14158 134.86 4.7389" fill="white"/>
<path d="M140.829 2.43003V3.77346H143.498V5.71996H140.829V7.06937H144.871V9.27858H138.375V0.214844H144.871V2.43003H140.829Z" fill="white"/>
<path d="M151.053 4.08579H152.755C153.328 4.08579 153.686 3.68574 153.686 3.24987C153.686 2.814 153.34 2.39604 152.755 2.39604H151.053V4.08579ZM152.08 6.1517H151.053V9.28639H148.641V0.222656H153.023C154.797 0.222656 156.158 1.48847 156.158 3.16628C156.158 4.32462 155.531 5.28593 154.57 5.79345L156.582 9.28639H153.877L152.08 6.1517Z" fill="white"/>
<path d="M165.121 5.56472L164.214 3.3376L163.306 5.56472H165.121ZM166.017 7.72019H162.428L161.801 9.27858H159.258L163.037 0.214844H165.36L169.187 9.27858H166.656L166.017 7.72019Z" fill="white"/>
<path d="M178.758 6.94995V9.27858H172.375V0.214844H174.948V6.94995H178.758Z" fill="white"/>
</g>
<defs>
<clipPath id="clip0_62_200">
<rect width="195.261" height="86.9098" fill="white"/>
</clipPath>
</defs>
</svg>
