<svg width="171" height="87" viewBox="0 0 171 87" fill="none" xmlns="http://www.w3.org/2000/svg">
<g clip-path="url(#clip0_62_145)">
<path d="M97.1797 29.7403V18.2227H100.341V26.9839H105.568V29.7403H97.1797Z" fill="white"/>
<path d="M110.664 29.8994C110.077 29.8994 109.532 29.8227 109.029 29.6693C108.526 29.5159 108.09 29.3069 107.722 29.0397C107.355 28.7725 107.04 28.4577 106.775 28.098C106.511 27.7356 106.315 27.3441 106.185 26.9182C106.056 26.4923 105.992 26.0505 105.992 25.5902C105.992 24.9686 106.093 24.384 106.296 23.8391C106.5 23.2941 106.794 22.8153 107.18 22.3974C107.566 21.9794 108.058 21.6514 108.656 21.408C109.256 21.1647 109.923 21.043 110.664 21.043C111.404 21.043 112.074 21.162 112.677 21.4027C113.28 21.6435 113.769 21.9688 114.15 22.3762C114.531 22.7836 114.822 23.2544 115.029 23.7809C115.235 24.3099 115.338 24.8707 115.338 25.4686C115.338 25.7807 115.309 26.0955 115.251 26.4103H109.27C109.301 26.8388 109.46 27.1589 109.746 27.3732C110.032 27.5874 110.368 27.6933 110.759 27.6933C111.103 27.6933 111.42 27.6139 111.717 27.4552C112.013 27.2965 112.209 27.0875 112.304 26.8282L114.909 27.5795C114.544 28.2858 113.997 28.8492 113.267 29.2672C112.537 29.6852 111.669 29.8941 110.664 29.8941V29.8994ZM109.198 24.5692H112.026C111.979 24.1565 111.83 23.8338 111.579 23.5957C111.328 23.3576 111.008 23.2386 110.616 23.2386C110.225 23.2386 109.905 23.3576 109.651 23.5957C109.397 23.8338 109.246 24.1591 109.198 24.5692Z" fill="white"/>
<path d="M116.336 20.5V17.9023H119.418V20.5H116.336ZM116.336 29.7427V21.2116H119.418V29.7427H116.336Z" fill="white"/>
<path d="M124.156 25.4561C124.156 24.6281 124.312 23.8768 124.627 23.2076C124.942 22.5383 125.384 22.0092 125.955 21.623C126.526 21.2368 127.169 21.0437 127.889 21.0437C128.444 21.0437 128.952 21.1707 129.418 21.4246C129.883 21.6786 130.233 22.0278 130.471 22.4695V17.8984H133.552V26.3343C133.552 26.6253 133.595 26.829 133.679 26.9454C133.764 27.0618 133.915 27.1279 134.132 27.1438V29.7414C133.603 29.8473 133.174 29.9002 132.841 29.9002C131.785 29.9002 131.177 29.506 131.018 28.7204L130.955 28.4109C130.674 28.9082 130.288 29.2785 129.799 29.5272C129.309 29.7758 128.77 29.9002 128.182 29.9002C127.005 29.9002 126.04 29.4849 125.288 28.6569C124.537 27.8289 124.159 26.7602 124.159 25.4561H124.156ZM130.484 26.4322V24.9111C130.336 24.5355 130.113 24.2313 129.817 23.9959C129.521 23.7604 129.211 23.644 128.891 23.644C128.447 23.644 128.077 23.8266 127.778 24.1943C127.479 24.5619 127.331 25.0064 127.331 25.5275C127.331 26.0486 127.487 26.4904 127.799 26.8184C128.111 27.1464 128.516 27.3104 129.018 27.3104C129.595 27.3104 130.082 27.0168 130.484 26.4322Z" fill="white"/>
<path d="M139.593 29.8994C139.006 29.8994 138.461 29.8227 137.959 29.6693C137.456 29.5159 137.02 29.3069 136.652 29.0397C136.284 28.7725 135.969 28.4577 135.705 28.098C135.44 27.7356 135.245 27.3441 135.115 26.9182C134.985 26.4923 134.922 26.0505 134.922 25.5902C134.922 24.9686 135.022 24.384 135.226 23.8391C135.43 23.2941 135.723 22.8153 136.11 22.3974C136.496 21.9794 136.988 21.6514 137.586 21.408C138.186 21.1647 138.853 21.043 139.593 21.043C140.334 21.043 141.003 21.162 141.607 21.4027C142.21 21.6435 142.699 21.9688 143.08 22.3762C143.461 22.7836 143.752 23.2544 143.958 23.7809C144.165 24.3099 144.268 24.8707 144.268 25.4686C144.268 25.7807 144.239 26.0955 144.18 26.4103H138.199C138.231 26.8388 138.39 27.1589 138.676 27.3732C138.961 27.5874 139.297 27.6933 139.689 27.6933C140.033 27.6933 140.35 27.6139 140.646 27.4552C140.943 27.2965 141.138 27.0875 141.234 26.8282L143.839 27.5795C143.474 28.2858 142.927 28.8492 142.196 29.2672C141.466 29.6852 140.599 29.8941 139.593 29.8941V29.8994ZM138.128 24.5692H140.956C140.908 24.1565 140.76 23.8338 140.509 23.5957C140.257 23.3576 139.937 23.2386 139.546 23.2386C139.154 23.2386 138.834 23.3576 138.58 23.5957C138.326 23.8338 138.176 24.1591 138.128 24.5692Z" fill="white"/>
<path d="M97.1797 46.9825V35.4648H100.341V46.9825H97.1797Z" fill="white"/>
<path d="M110.693 46.9829H107.612V42.1843C107.612 41.7875 107.522 41.4886 107.342 41.2849C107.162 41.0812 106.937 40.9807 106.67 40.9807C106.403 40.9807 106.12 41.0971 105.831 41.3299C105.54 41.5627 105.326 41.8537 105.191 42.2002V46.9829H102.109V38.4518H104.89V39.711C105.191 39.2454 105.617 38.8936 106.165 38.6502C106.715 38.4068 107.358 38.2852 108.098 38.2852C108.469 38.2852 108.799 38.3328 109.093 38.428C109.387 38.5232 109.625 38.6555 109.805 38.8274C109.987 38.9994 110.141 39.1846 110.265 39.383C110.389 39.5814 110.482 39.8062 110.543 40.0549C110.603 40.3062 110.643 40.531 110.664 40.7321C110.685 40.9331 110.696 41.1447 110.696 41.3669V46.9829H110.693Z" fill="white"/>
<path d="M116.398 47.1416C115.663 47.1416 114.999 47.0226 114.399 46.7819C113.798 46.5411 113.306 46.2158 112.917 45.8031C112.528 45.3904 112.232 44.9222 112.023 44.3932C111.814 43.8641 111.711 43.3059 111.711 42.7134C111.711 42.1208 111.814 41.5627 112.023 41.0336C112.232 40.5046 112.531 40.0363 112.917 39.6237C113.306 39.211 113.798 38.8856 114.399 38.6449C114.999 38.4042 115.666 38.2852 116.398 38.2852C117.39 38.2852 118.242 38.4941 118.954 38.9121C119.663 39.3301 120.202 39.8935 120.565 40.6077L117.562 41.5177C117.271 41.0945 116.877 40.8828 116.383 40.8828C115.949 40.8828 115.589 41.0469 115.301 41.3775C115.012 41.7082 114.869 42.1526 114.869 42.7107C114.869 43.2689 115.012 43.716 115.301 44.0493C115.589 44.3826 115.949 44.5492 116.383 44.5492C116.88 44.5492 117.271 44.3376 117.562 43.9144L120.565 44.8243C120.2 45.5359 119.663 46.102 118.954 46.5147C118.242 46.93 117.393 47.1363 116.398 47.1363V47.1416Z" fill="white"/>
<path d="M125.664 47.1455C125.077 47.1455 124.532 47.0688 124.029 46.9154C123.526 46.762 123.09 46.553 122.722 46.2858C122.355 46.0186 122.04 45.7038 121.775 45.3441C121.511 44.9817 121.315 44.5902 121.185 44.1643C121.056 43.7384 120.992 43.2966 120.992 42.8363C120.992 42.2147 121.093 41.6301 121.296 41.0851C121.5 40.5402 121.794 40.0614 122.18 39.6435C122.566 39.2255 123.058 38.8975 123.656 38.6541C124.256 38.4107 124.923 38.2891 125.664 38.2891C126.404 38.2891 127.074 38.4081 127.677 38.6488C128.28 38.8895 128.769 39.2149 129.15 39.6223C129.531 40.0297 129.822 40.5005 130.029 41.027C130.235 41.556 130.338 42.1168 130.338 42.7147C130.338 43.0268 130.309 43.3416 130.251 43.6564H124.27C124.301 44.0849 124.46 44.405 124.746 44.6193C125.032 44.8335 125.368 44.9393 125.759 44.9393C126.103 44.9393 126.42 44.86 126.717 44.7013C127.013 44.5426 127.209 44.3336 127.304 44.0743L129.909 44.8256C129.544 45.5319 128.997 46.0953 128.267 46.5133C127.537 46.9313 126.669 47.1402 125.664 47.1402V47.1455ZM124.198 41.8152H127.026C126.979 41.4026 126.83 41.0799 126.579 40.8418C126.328 40.6037 126.008 40.4847 125.616 40.4847C125.225 40.4847 124.905 40.6037 124.651 40.8418C124.397 41.0799 124.246 41.4052 124.198 41.8152Z" fill="white"/>
<path d="M139.92 46.9868H136.838V42.1882C136.838 41.7914 136.748 41.4925 136.568 41.2888C136.388 41.0851 136.164 40.9846 135.896 40.9846C135.629 40.9846 135.346 41.101 135.058 41.3338C134.767 41.5666 134.553 41.8576 134.418 42.2041V46.9868H131.336V38.4557H134.116V39.7149C134.418 39.2493 134.844 38.8975 135.391 38.6541C135.941 38.4107 136.584 38.2891 137.325 38.2891C137.695 38.2891 138.026 38.3367 138.32 38.4319C138.613 38.5271 138.851 38.6594 139.031 38.8313C139.214 39.0033 139.367 39.1885 139.491 39.3869C139.616 39.5853 139.708 39.8101 139.769 40.0588C139.83 40.3101 139.87 40.5349 139.891 40.736C139.912 40.937 139.923 41.1486 139.923 41.3708V46.9868H139.92Z" fill="white"/>
<path d="M147.392 46.5185C146.389 46.9524 145.442 47.1693 144.556 47.1693C144.191 47.1693 143.861 47.1243 143.562 47.0344C143.263 46.9444 142.993 46.8069 142.755 46.619C142.517 46.4312 142.326 46.1746 142.191 45.8466C142.056 45.5186 141.99 45.1324 141.99 44.6827V40.7782H140.938V38.4583H141.99V35.7812H145.072V38.4583H146.744V40.7782H145.072V43.5981C145.072 44.106 145.294 44.3573 145.739 44.3573C146.019 44.3573 146.384 44.2647 146.839 44.0796L147.395 46.5185H147.392Z" fill="white"/>
<path d="M148.266 37.7422V35.1445H151.347V37.7422H148.266ZM148.266 46.9849V38.4538H151.347V46.9849H148.266Z" fill="white"/>
<path d="M155.024 46.9842L152.148 38.4531H155.31L156.839 44.2437L158.375 38.4531H161.251L158.375 46.9842H155.024Z" fill="white"/>
<path d="M161.266 42.7146C161.266 42.1168 161.369 41.556 161.575 41.0269C161.781 40.4979 162.075 40.0297 162.453 39.6223C162.834 39.2123 163.324 38.8895 163.927 38.6488C164.53 38.4081 165.199 38.2891 165.937 38.2891C166.675 38.2891 167.347 38.4081 167.95 38.6488C168.553 38.8895 169.043 39.2149 169.424 39.6223C169.805 40.0297 170.096 40.5005 170.302 41.0269C170.508 41.556 170.611 42.1168 170.611 42.7146C170.611 43.3125 170.508 43.8654 170.302 44.3944C170.096 44.9235 169.802 45.3917 169.424 45.8044C169.043 46.217 168.553 46.5424 167.95 46.7831C167.347 47.0238 166.678 47.1429 165.937 47.1429C165.197 47.1429 164.527 47.0238 163.927 46.7831C163.324 46.5424 162.834 46.217 162.453 45.8044C162.072 45.3917 161.781 44.9235 161.575 44.3944C161.369 43.8654 161.266 43.3072 161.266 42.7146ZM164.85 44.0532C165.133 44.3865 165.495 44.5531 165.94 44.5531C166.384 44.5531 166.744 44.3865 167.024 44.0532C167.305 43.7199 167.445 43.2755 167.445 42.7146C167.445 42.1538 167.305 41.7094 167.024 41.3814C166.744 41.0508 166.382 40.8867 165.94 40.8867C165.498 40.8867 165.128 41.0508 164.847 41.3814C164.567 41.7121 164.427 42.1565 164.427 42.7146C164.427 43.2728 164.567 43.7199 164.85 44.0532Z" fill="white"/>
<path d="M96.4919 61.6453C96.4919 60.7908 96.8358 60.0898 97.5263 59.5475C98.214 59.0026 99.0976 58.7328 100.177 58.7328C100.878 58.7328 101.452 58.8413 101.896 59.0582V58.7963C101.896 58.3942 101.78 58.0979 101.544 57.9022C101.309 57.7064 100.936 57.6085 100.423 57.6085C99.9626 57.6085 99.5288 57.6826 99.1161 57.8334C98.7034 57.9842 98.259 58.217 97.7776 58.5344L96.8835 56.6166C98.0077 55.8944 99.288 55.532 100.724 55.532C102.161 55.532 103.142 55.8415 103.878 56.4578C104.61 57.0768 104.978 57.9789 104.978 59.1666V60.8226C104.978 61.1136 105.02 61.3173 105.105 61.4336C105.19 61.55 105.343 61.6162 105.565 61.632V64.2297C105.089 64.3355 104.658 64.3884 104.266 64.3884C103.216 64.3884 102.611 63.9943 102.452 63.2086L102.38 62.8991C101.605 63.8911 100.637 64.3884 99.4811 64.3884C98.6267 64.3884 97.9151 64.1292 97.3464 63.6081C96.7776 63.087 96.4946 62.4336 96.4946 61.6479L96.4919 61.6453ZM98.2907 52.3867H101.031L101.846 54.6908L99.8964 55.2066L98.2881 52.3867H98.2907ZM101.492 61.8595C101.761 61.685 101.896 61.4839 101.896 61.2564V60.6215C101.478 60.4734 101.084 60.3993 100.709 60.3993C100.333 60.3993 100.029 60.4919 99.7774 60.6771C99.5261 60.8623 99.4018 61.0951 99.4018 61.3755C99.4018 61.6082 99.4944 61.8013 99.6822 61.9548C99.87 62.1082 100.108 62.1849 100.399 62.1849C100.806 62.1849 101.169 62.0765 101.492 61.8595Z" fill="white"/>
<path d="M115.779 52.6445C116.861 52.6445 117.819 52.872 118.647 53.327C119.475 53.782 120.094 54.3904 120.501 55.1576L118.086 56.877C117.98 56.6072 117.837 56.377 117.657 56.1839C117.477 55.9908 117.276 55.8427 117.054 55.7395C116.832 55.6364 116.612 55.5623 116.393 55.5173C116.173 55.4724 115.948 55.4512 115.716 55.4512C115.282 55.4512 114.896 55.5385 114.552 55.7157C114.208 55.893 113.935 56.1284 113.732 56.422C113.528 56.7156 113.374 57.0357 113.269 57.3849C113.163 57.7341 113.11 58.0965 113.11 58.4695C113.11 59.308 113.351 60.0276 113.829 60.6228C114.311 61.2206 114.948 61.5169 115.747 61.5169C116.059 61.5169 116.358 61.4745 116.641 61.3873C116.927 61.3 117.2 61.1465 117.461 60.927C117.723 60.7074 117.914 60.4349 118.036 60.1069L120.617 61.6438C120.4 62.1888 120.022 62.6676 119.48 63.0855C118.938 63.5035 118.337 63.813 117.678 64.0167C117.017 64.2204 116.353 64.3209 115.681 64.3209C114.859 64.3209 114.081 64.1489 113.348 63.8051C112.618 63.4612 112.002 63.0115 111.502 62.456C111.002 61.9004 110.61 61.2629 110.322 60.546C110.033 59.8318 109.891 59.107 109.891 58.3716C109.891 57.6362 110.026 56.9722 110.298 56.2924C110.57 55.6152 110.949 55.0015 111.438 54.4592C111.928 53.9143 112.549 53.4778 113.303 53.1445C114.057 52.8112 114.882 52.6445 115.774 52.6445H115.779Z" fill="white"/>
<path d="M121.445 61.3033V55.6953H124.527V60.605C124.527 60.9753 124.609 61.2663 124.776 61.4753C124.942 61.6843 125.173 61.7927 125.469 61.7927C126.051 61.7927 126.54 61.4991 126.942 60.9145V55.6953H130.024V60.8193C130.024 61.1102 130.066 61.3139 130.151 61.4303C130.236 61.5467 130.389 61.6128 130.611 61.6287V64.2264C130.082 64.3322 129.651 64.3851 129.312 64.3851C128.262 64.3851 127.656 63.991 127.498 63.2053L127.434 62.8958C126.691 63.8878 125.58 64.3851 124.106 64.3851C123.247 64.3851 122.588 64.1206 122.13 63.5942C121.673 63.0651 121.445 62.3033 121.445 61.306V61.3033Z" fill="white"/>
<path d="M131.826 52.3894H134.907V60.8411C134.907 61.4918 135.175 61.8146 135.706 61.8146C135.965 61.8146 136.246 61.7326 136.545 61.5686L136.934 63.8409C136.574 64.0102 136.164 64.1424 135.701 64.2403C135.238 64.3382 134.802 64.3858 134.389 64.3858C133.566 64.3858 132.931 64.1742 132.487 63.7483C132.043 63.3224 131.82 62.714 131.82 61.923V52.3867L131.826 52.3894Z" fill="white"/>
<path d="M143.392 63.7607C142.389 64.1945 141.442 64.4115 140.556 64.4115C140.191 64.4115 139.86 64.3665 139.561 64.2765C139.262 64.1866 138.993 64.0491 138.755 63.8612C138.517 63.6734 138.326 63.4168 138.191 63.0888C138.056 62.7608 137.99 62.3746 137.99 61.9249V58.0204H136.937V55.7005H137.99V53.0234H141.072V55.7005H142.744V58.0204H141.072V60.8403C141.072 61.3482 141.294 61.5995 141.738 61.5995C142.019 61.5995 142.384 61.5069 142.839 61.3217L143.394 63.7607H143.392Z" fill="white"/>
<path d="M144.18 61.3073V55.6992H147.261V60.6089C147.261 60.9792 147.343 61.2702 147.51 61.4792C147.677 61.6882 147.907 61.7966 148.203 61.7966C148.785 61.7966 149.275 61.503 149.677 60.9184V55.6992H152.758V60.8232C152.758 61.1141 152.801 61.3178 152.885 61.4342C152.97 61.5506 153.123 61.6168 153.346 61.6326V64.2303C152.817 64.3361 152.385 64.389 152.047 64.389C150.997 64.389 150.391 63.9949 150.232 63.2092L150.169 62.8997C149.425 63.8917 148.314 64.389 146.841 64.389C145.981 64.389 145.322 64.1245 144.865 63.5981C144.407 63.069 144.18 62.3072 144.18 61.3099V61.3073Z" fill="white"/>
<path d="M160.4 58.3273C159.027 58.3273 158.125 58.6077 157.691 59.1659V64.2264H154.609V55.6953H157.437V57.3195C157.739 56.7534 158.114 56.3143 158.567 56.0021C159.019 55.6873 159.501 55.5312 160.011 55.5312C160.217 55.5312 160.347 55.5365 160.4 55.5471V58.3273Z" fill="white"/>
<path d="M160.797 61.6445C160.797 60.7901 161.141 60.0891 161.831 59.5468C162.519 59.0019 163.402 58.7321 164.482 58.7321C165.183 58.7321 165.757 58.8405 166.201 59.0574V58.7956C166.201 58.3935 166.085 58.0972 165.849 57.9014C165.614 57.7057 165.241 57.6078 164.728 57.6078C164.268 57.6078 163.834 57.6819 163.421 57.8327C163.008 57.9834 162.564 58.2162 162.082 58.5337L161.188 56.6158C162.313 55.8937 163.593 55.5312 165.029 55.5312C166.466 55.5312 167.447 55.8408 168.183 56.4571C168.915 57.0761 169.283 57.9782 169.283 59.1659V60.8219C169.283 61.1128 169.325 61.3165 169.41 61.4329C169.495 61.5493 169.648 61.6154 169.87 61.6313V64.229C169.394 64.3348 168.963 64.3877 168.571 64.3877C167.521 64.3877 166.915 63.9936 166.757 63.2079L166.685 62.8984C165.91 63.8904 164.942 64.3877 163.786 64.3877C162.932 64.3877 162.22 64.1285 161.651 63.6074C161.083 63.0862 160.8 62.4328 160.8 61.6472L160.797 61.6445ZM165.794 61.8588C166.064 61.6842 166.199 61.4832 166.199 61.2557V60.6208C165.781 60.4727 165.386 60.3986 165.011 60.3986C164.635 60.3986 164.331 60.4912 164.08 60.6764C163.828 60.8615 163.704 61.0943 163.704 61.3747C163.704 61.6075 163.797 61.8006 163.984 61.954C164.172 62.1075 164.41 62.1842 164.701 62.1842C165.109 62.1842 165.471 62.0757 165.794 61.8588Z" fill="white"/>
<path d="M25.1406 43.5126L25.1671 43.4438L25.1406 43.375V43.5126Z" fill="#01B16A"/>
<path d="M39.2987 40.7734L32.4844 43.4452L39.296 46.1222L84.8957 46.1328V40.7814L39.2987 40.7734Z" fill="#01B16A"/>
<path d="M39.2982 46.1198L31.8438 46.1172L36.8645 50.9131L78.2317 67.1685L80.1893 62.1874L39.2982 46.1198Z" fill="white"/>
<path d="M36.8594 50.913L29.9922 48.2148L32.3518 54.008L61.8204 82.1514L65.5159 78.2813L36.8594 50.913Z" fill="#0066B3"/>
<path d="M32.3016 54.0107L27.1935 49.1328L26.6406 54.2964L39.92 86.913L44.8747 84.8973L32.3016 54.0107Z" fill="#FFCF00"/>
<path d="M21.579 51.0878L18.5078 79.7734L23.8275 80.3421L26.6342 54.1352L24.2217 48.207L21.579 51.0878Z" fill="#01B16A"/>
<path d="M25.1406 43.4421L25.1674 43.4447L25.1406 43.418V43.4421Z" fill="#FFCF00"/>
<path d="M19.08 46.1211L3.71875 62.8711L7.66289 66.4899L21.638 51.2477L22.1882 46.1211H19.08Z" fill="#FFCF00"/>
<path d="M19.0779 40.6641L0 40.6746V46.0261L19.0779 46.0155L21.5327 43.3385L19.0779 40.6641Z" fill="#F3382F"/>
<path d="M25.1406 43.448V43.4694L25.1674 43.4453L25.1406 43.448Z" fill="#01B16A"/>
<path d="M21.6407 35.6468L7.66025 20.4258L3.71875 24.0446L19.08 40.7734L22.1882 40.7708L21.6407 35.6468Z" fill="#01B16A"/>
<path d="M26.6342 32.3291L23.8275 6.14062L18.5078 6.71201L21.5817 35.3765L24.2217 38.2546L26.6342 32.3291Z" fill="#FFCF00"/>
<path d="M32.3042 32.8837L44.8747 2.01836L39.92 0L26.6406 32.598L27.1961 37.759L32.3042 32.8837Z" fill="white"/>
<path d="M36.8594 35.9789L65.5159 8.63179L61.8204 4.76172L32.3518 32.8839L29.9922 38.6718L36.8594 35.9789Z" fill="#0066B3"/>
<path d="M78.2344 19.7383L36.8645 35.9751L31.8438 40.7658L39.3009 40.7684L80.1893 24.7194L78.2344 19.7383Z" fill="#F3382F"/>
<path d="M97.5156 78.9504V71.4219H98.7007V77.9002H102.745V78.9504H97.5156Z" fill="white"/>
<path d="M106.04 79.0529C105.476 79.0529 104.973 78.9207 104.532 78.6588C104.09 78.3969 103.751 78.0504 103.516 77.6165C103.28 77.1853 103.164 76.7092 103.164 76.1934C103.164 75.8045 103.233 75.4315 103.373 75.0797C103.513 74.7279 103.706 74.421 103.95 74.1591C104.196 73.8972 104.5 73.6883 104.865 73.5348C105.23 73.3814 105.624 73.3047 106.047 73.3047C106.471 73.3047 106.862 73.3814 107.219 73.5375C107.576 73.6935 107.875 73.8999 108.116 74.1618C108.357 74.4236 108.542 74.7226 108.674 75.0665C108.806 75.4077 108.873 75.7648 108.873 76.1378C108.873 76.2357 108.862 76.3759 108.841 76.5637H104.397C104.431 77.0425 104.611 77.4367 104.934 77.7409C105.256 78.0451 105.637 78.1985 106.077 78.1985C106.394 78.1985 106.69 78.1191 106.963 77.9631C107.235 77.807 107.423 77.6007 107.526 77.3494L108.526 77.635C108.33 78.0583 108.008 78.4022 107.563 78.6641C107.119 78.926 106.608 79.0556 106.034 79.0556L106.04 79.0529ZM104.37 75.7886H107.722C107.68 75.3098 107.502 74.9183 107.185 74.6168C106.87 74.3152 106.487 74.1644 106.037 74.1644C105.587 74.1644 105.212 74.3178 104.891 74.6221C104.574 74.9289 104.399 75.3178 104.368 75.7886H104.37Z" fill="white"/>
<path d="M109.828 72.49V71.207H110.995V72.49H109.828ZM109.828 78.9498V73.4026H110.995V78.9498H109.828Z" fill="white"/>
<path d="M115.164 78.9504V71.4219H118.442C118.77 71.4219 119.082 71.4933 119.375 71.6335C119.672 71.7763 119.918 71.9615 120.119 72.1917C120.32 72.4218 120.478 72.6863 120.595 72.98C120.711 73.2736 120.772 73.5699 120.772 73.8714C120.772 74.382 120.637 74.8449 120.367 75.2576C120.098 75.6702 119.743 75.948 119.301 76.0882L121.074 78.953H119.738L118.1 76.3316H116.349V78.953H115.164V78.9504ZM116.349 75.2787H118.431C118.759 75.2787 119.029 75.1412 119.243 74.8661C119.457 74.5909 119.563 74.2603 119.563 73.8688C119.563 73.4773 119.442 73.1572 119.201 72.8821C118.96 72.607 118.68 72.4694 118.362 72.4694H116.347V75.2761L116.349 75.2787Z" fill="white"/>
<path d="M121.678 77.2792C121.543 76.93 121.477 76.565 121.477 76.1814C121.477 75.7978 121.545 75.4328 121.683 75.0836C121.82 74.7344 122.011 74.4302 122.252 74.1683C122.492 73.9064 122.794 73.6975 123.156 73.5414C123.516 73.3853 123.905 73.3086 124.323 73.3086C124.881 73.3086 125.381 73.4409 125.823 73.708C126.262 73.9752 126.598 74.3244 126.831 74.7582C127.063 75.1921 127.177 75.6682 127.177 76.1814C127.177 76.6946 127.061 77.1707 126.831 77.6046C126.601 78.0384 126.265 78.3902 125.823 78.6547C125.384 78.9193 124.884 79.0542 124.323 79.0542C123.897 79.0542 123.506 78.9775 123.146 78.8214C122.786 78.6653 122.484 78.4563 122.241 78.1945C122 77.9326 121.813 77.6257 121.678 77.2765V77.2792ZM123.151 77.5279C123.471 77.8823 123.86 78.0622 124.323 78.0622C124.786 78.0622 125.177 77.8797 125.497 77.5173C125.818 77.1549 125.979 76.7105 125.979 76.1814C125.979 75.6523 125.818 75.2079 125.497 74.8482C125.177 74.4884 124.783 74.3059 124.323 74.3059C123.863 74.3059 123.474 74.4884 123.154 74.8534C122.834 75.2185 122.672 75.6656 122.672 76.1946C122.672 76.7237 122.831 77.1707 123.151 77.5252V77.5279Z" fill="white"/>
<path d="M128.159 76.7975V73.4062H129.323V76.5647C129.323 77.0594 129.413 77.4324 129.593 77.6837C129.773 77.935 130.037 78.062 130.386 78.062C130.735 78.062 131.042 77.9588 131.336 77.7498C131.632 77.5409 131.857 77.2472 132.016 76.8663V73.4062H133.185V77.6361C133.185 77.771 133.209 77.8662 133.256 77.9271C133.304 77.9853 133.386 78.017 133.5 78.0197V78.9508C133.296 78.9852 133.124 79.0037 132.981 79.0037C132.767 79.0037 132.587 78.9455 132.442 78.8291C132.296 78.7127 132.217 78.5619 132.204 78.3768L132.182 77.8266C131.936 78.2233 131.616 78.5276 131.222 78.7392C130.828 78.9508 130.392 79.054 129.915 79.054C129.339 79.054 128.902 78.8635 128.603 78.4826C128.304 78.1017 128.156 77.5382 128.156 76.7975H128.159Z" fill="white"/>
<path d="M134.268 77.3308C134.268 76.8018 134.488 76.3785 134.927 76.0532C135.366 75.7278 135.935 75.5691 136.636 75.5691C137.199 75.5691 137.681 75.6431 138.08 75.7913V75.4394C138.08 75.0506 137.961 74.7437 137.723 74.5242C137.485 74.3046 137.149 74.1962 136.718 74.1962C136.422 74.1962 136.133 74.2491 135.858 74.3522C135.583 74.4554 135.281 74.6141 134.956 74.8231L134.567 74.0401C135.303 73.5507 136.062 73.3047 136.845 73.3047C137.628 73.3047 138.181 73.5031 138.607 73.8972C139.032 74.2914 139.244 74.8495 139.244 75.5664V77.6324C139.244 77.7647 139.268 77.8599 139.313 77.9207C139.36 77.9816 139.437 78.0133 139.548 78.016V78.9471C139.363 78.9815 139.196 79 139.051 79C138.816 79 138.633 78.9418 138.501 78.8281C138.368 78.7143 138.289 78.5715 138.265 78.3995L138.234 78.0795C137.995 78.3863 137.691 78.6244 137.318 78.7963C136.948 78.9683 136.567 79.0529 136.176 79.0529C135.623 79.0529 135.168 78.8889 134.805 78.5583C134.446 78.2276 134.266 77.8176 134.266 77.3282L134.268 77.3308ZM137.8 77.6668C137.988 77.4816 138.08 77.307 138.08 77.1483V76.5108C137.673 76.3547 137.25 76.278 136.805 76.278C136.361 76.278 136.03 76.3653 135.768 76.5372C135.504 76.7092 135.371 76.942 135.371 77.2303C135.371 77.4922 135.472 77.7197 135.676 77.9102C135.877 78.1006 136.154 78.1985 136.506 78.1985C136.747 78.1985 136.985 78.1482 137.22 78.0477C137.456 77.9472 137.649 77.8202 137.8 77.6641V77.6668Z" fill="white"/>
<path d="M145.632 78.9524H144.463V75.8442C144.463 75.331 144.381 74.9527 144.217 74.7093C144.053 74.4686 143.807 74.3469 143.479 74.3469C143.151 74.3469 142.81 74.4713 142.487 74.7226C142.164 74.9739 141.942 75.2834 141.823 75.6511V78.9498H140.656V73.4026H141.717V74.5162C141.931 74.1433 142.241 73.847 142.643 73.6301C143.048 73.4131 143.489 73.3047 143.973 73.3047C144.233 73.3047 144.46 73.3444 144.653 73.4237C144.849 73.5031 145.008 73.6089 145.129 73.7438C145.251 73.8787 145.352 74.0454 145.426 74.2438C145.5 74.4422 145.555 74.6485 145.584 74.8601C145.614 75.0717 145.629 75.3072 145.629 75.5664V78.9471L145.632 78.9524Z" fill="white"/>
<path d="M149.508 79.0529C148.945 79.0529 148.442 78.9207 148 78.6588C147.559 78.3969 147.22 78.0504 146.985 77.6165C146.749 77.1853 146.633 76.7092 146.633 76.1934C146.633 75.8045 146.702 75.4315 146.842 75.0797C146.982 74.7279 147.175 74.421 147.418 74.1591C147.664 73.8972 147.969 73.6883 148.334 73.5348C148.699 73.3814 149.093 73.3047 149.516 73.3047C149.939 73.3047 150.331 73.3814 150.688 73.5375C151.045 73.6935 151.344 73.8999 151.585 74.1618C151.826 74.4236 152.011 74.7226 152.143 75.0665C152.275 75.4077 152.341 75.7648 152.341 76.1378C152.341 76.2357 152.331 76.3759 152.31 76.5637H147.866C147.9 77.0425 148.08 77.4367 148.403 77.7409C148.725 78.0451 149.106 78.1985 149.545 78.1985C149.863 78.1985 150.159 78.1191 150.431 77.9631C150.704 77.807 150.892 77.6007 150.995 77.3494L151.995 77.635C151.799 78.0583 151.476 78.4022 151.032 78.6641C150.588 78.926 150.077 79.0556 149.503 79.0556L149.508 79.0529ZM147.842 75.7886H151.193C151.151 75.3098 150.974 74.9183 150.656 74.6168C150.342 74.3152 149.958 74.1644 149.508 74.1644C149.059 74.1644 148.683 74.3178 148.363 74.6221C148.045 74.9289 147.871 75.3178 147.839 75.7886H147.842Z" fill="white"/>
<path d="M156.336 78.6661C155.818 78.9122 155.334 79.0338 154.887 79.0338C154.492 79.0338 154.17 78.9307 153.916 78.7217C153.662 78.5127 153.535 78.1979 153.535 77.7773V74.3067H152.805V73.4046H153.535V71.582H154.704V73.4046H155.91V74.3067H154.704V77.4043C154.715 77.5895 154.773 77.7324 154.881 77.8276C154.987 77.9228 155.127 77.9704 155.297 77.9704C155.543 77.9704 155.807 77.8964 156.093 77.7482L156.336 78.6688V78.6661Z" fill="white"/>
</g>
<defs>
<clipPath id="clip0_62_145">
<rect width="170.611" height="86.913" fill="white"/>
</clipPath>
</defs>
</svg>
