<svg width="200" height="49" viewBox="0 0 200 49" fill="none" xmlns="http://www.w3.org/2000/svg">
<g clip-path="url(#clip0_62_266)">
<path d="M12.3582 18.9335V8.46597L8.02873 16.4125H6.66778L2.32002 8.46597V18.9335H0V4.24609H2.49357L7.35282 13.2339L12.2121 4.24609H14.6965V18.9335H12.3582Z" fill="white"/>
<path d="M24.4685 4.24609H22.1484V18.9426H24.4685V4.24609Z" fill="white"/>
<path d="M34.2263 8.54818V18.9426H31.9062V4.24609H33.8061L42.1363 14.8689V4.26436H44.4746V18.9426H42.4468L34.2263 8.54818Z" fill="white"/>
<path d="M54.2249 4.24609H51.9141V18.9426H54.2249V4.24609Z" fill="white"/>
<path d="M70.3788 7.69896C70.0592 7.34273 69.5294 7.01391 68.7621 6.68509C68.004 6.3654 67.2185 6.20099 66.4056 6.20099C65.4465 6.20099 64.7341 6.38367 64.2591 6.73076C63.7841 7.08698 63.5467 7.58021 63.5467 8.22872C63.5467 8.42967 63.5741 8.61235 63.6289 8.77676C63.6745 8.93204 63.7476 9.07818 63.8389 9.20606C63.9211 9.33393 64.049 9.45267 64.2134 9.56228C64.3778 9.67189 64.5514 9.77236 64.7158 9.85457C64.8802 9.92764 65.1086 10.019 65.3917 10.1103C65.6749 10.2017 65.9489 10.2747 66.1955 10.3478C66.4421 10.4117 66.7709 10.4939 67.1728 10.5944C67.8213 10.7497 68.3694 10.905 68.8352 11.0511C69.2919 11.2064 69.7395 11.3982 70.1596 11.6357C70.5798 11.864 70.9177 12.1198 71.1826 12.4121C71.4384 12.6952 71.6393 13.0423 71.7946 13.4625C71.9499 13.8735 72.023 14.3393 72.023 14.86C72.023 15.4445 71.9316 15.9743 71.7489 16.4493C71.5663 16.9242 71.3105 17.317 70.9908 17.6458C70.662 17.9655 70.2784 18.2395 69.8217 18.4587C69.365 18.678 68.8717 18.8332 68.342 18.9337C67.8122 19.0342 67.255 19.0798 66.6431 19.0798C65.5287 19.0798 64.4418 18.9063 63.4005 18.5683C62.3501 18.2304 61.4184 17.7372 60.5781 17.0978L61.6377 15.1066C62.0578 15.545 62.752 15.9652 63.7202 16.3762C64.6793 16.7872 65.6657 16.9882 66.6796 16.9882C67.593 16.9882 68.3054 16.8238 68.7987 16.5041C69.2919 16.1844 69.5385 15.7186 69.5385 15.1066C69.5385 14.8691 69.4928 14.6499 69.4289 14.4489C69.3558 14.2571 69.2188 14.0836 69.0362 13.9192C68.8535 13.7639 68.6708 13.6177 68.479 13.5081C68.2872 13.3894 68.0131 13.2707 67.6569 13.1519C67.3007 13.024 66.981 12.9327 66.6887 12.8505C66.3964 12.7683 66.0037 12.6587 65.5013 12.5399C64.7341 12.339 64.0856 12.1289 63.5832 11.9188C63.0808 11.7088 62.6333 11.453 62.2405 11.1516C61.8477 10.8502 61.5737 10.4939 61.4002 10.0738C61.2175 9.66275 61.1353 9.16952 61.1353 8.60322C61.1353 7.89077 61.2632 7.26053 61.5463 6.68509C61.8203 6.11878 62.1948 5.64382 62.6698 5.27846C63.1448 4.90397 63.7111 4.62995 64.3596 4.429C65.0081 4.23719 65.7023 4.13672 66.4695 4.13672C68.2689 4.13672 69.9313 4.69389 71.4384 5.7991L70.388 7.69896H70.3788Z" fill="white"/>
<path d="M89.2471 6.2921H84.3604V18.9426H82.0221V6.2921H77.1172V4.24609H89.2471V6.2921Z" fill="white"/>
<path d="M101.316 2.73105L99.8181 2.27435L101.005 0H103.179L101.325 2.73105H101.316ZM105.426 16.8887V18.9438H95.3516V4.24728H105.244V6.30242H97.6624V10.4766H104.221V12.4039H97.6624V16.8887H105.426Z" fill="white"/>
<path d="M114.274 11.7725H118.33C118.978 11.7725 119.499 11.4984 119.919 10.9687C120.339 10.4389 120.549 9.78126 120.549 9.02314C120.549 8.26503 120.303 7.62565 119.846 7.09588C119.371 6.56611 118.823 6.2921 118.202 6.2921H114.274V11.7725ZM111.954 18.9335V4.24609H118.348C118.997 4.24609 119.6 4.3831 120.175 4.66626C120.75 4.94027 121.235 5.30563 121.627 5.75319C122.02 6.20989 122.331 6.72139 122.559 7.29683C122.787 7.86313 122.906 8.44771 122.906 9.04141C122.906 10.0279 122.641 10.9321 122.111 11.7359C121.591 12.5397 120.897 13.0786 120.029 13.3618L123.491 18.9517H120.878L117.681 13.8367H114.265V18.9517H111.945L111.954 18.9335Z" fill="white"/>
<path d="M132.086 4.24609H129.766V18.9426H132.086V4.24609Z" fill="white"/>
<path d="M145.661 16.9451C146.373 16.9451 147.031 16.7898 147.634 16.4793C148.237 16.1687 148.73 15.7668 149.113 15.2553C149.497 14.7529 149.789 14.1775 150.009 13.5381C150.219 12.9079 150.328 12.2594 150.328 11.5926C150.328 10.9258 150.219 10.2316 149.99 9.59227C149.762 8.94376 149.46 8.37745 149.059 7.88422C148.666 7.38185 148.173 6.98909 147.579 6.69681C146.985 6.40452 146.355 6.25838 145.661 6.25838C144.967 6.25838 144.291 6.41365 143.688 6.71507C143.085 7.01649 142.592 7.42752 142.199 7.93902C141.806 8.44139 141.505 9.00769 141.295 9.64707C141.085 10.2773 140.966 10.9258 140.966 11.5926C140.966 12.5243 141.158 13.392 141.523 14.2049C141.898 15.0087 142.455 15.6755 143.185 16.1778C143.907 16.6893 144.738 16.9451 145.67 16.9451M138.609 11.5926C138.609 10.6244 138.792 9.6836 139.148 8.77934C139.514 7.87508 139.998 7.08043 140.619 6.40452C141.24 5.72861 141.989 5.18057 142.875 4.76955C143.752 4.35852 144.693 4.14844 145.688 4.14844C146.684 4.14844 147.661 4.36765 148.547 4.79695C149.442 5.23538 150.182 5.79255 150.785 6.50499C151.379 7.20831 151.844 8.01209 152.192 8.89809C152.529 9.79321 152.703 10.6975 152.703 11.62C152.703 12.5882 152.52 13.529 152.164 14.4333C151.808 15.3375 151.315 16.123 150.703 16.8081C150.091 17.484 149.342 18.032 148.456 18.4431C147.579 18.8449 146.638 19.055 145.643 19.055C144.82 19.055 144.044 18.918 143.295 18.644C142.555 18.37 141.898 17.9955 141.34 17.5114C140.783 17.0364 140.29 16.4884 139.879 15.8581C139.459 15.237 139.148 14.552 138.938 13.8213C138.719 13.0814 138.609 12.3507 138.609 11.6017" fill="white"/>
<path d="M173.7 6.2921H170.804V16.8783H173.7C174.714 16.8783 175.581 16.6408 176.312 16.175C177.043 15.7001 177.591 15.0698 177.947 14.2843C178.312 13.4896 178.495 12.5854 178.495 11.5624C178.495 9.99134 178.075 8.72172 177.216 7.74439C176.367 6.76706 175.189 6.28296 173.691 6.28296M168.484 18.9335V4.24609H173.7C174.851 4.24609 175.883 4.43791 176.805 4.82153C177.728 5.20516 178.477 5.72579 179.071 6.39257C179.655 7.06848 180.094 7.83573 180.404 8.71259C180.706 9.58945 180.861 10.5394 180.861 11.5715C180.861 13.7911 180.212 15.5813 178.906 16.924C177.6 18.2667 175.865 18.9426 173.7 18.9426H168.484V18.9335Z" fill="white"/>
<path d="M194.598 13.2248L192.232 6.78533L189.802 13.2248H194.598ZM191.145 4.24609H193.337L199.046 18.9426H196.607L195.063 14.9511H189.391L187.857 18.9426H185.391L191.154 4.24609H191.145Z" fill="white"/>
<path d="M46.5237 33.2109C47.9029 33.2109 49.1269 33.5032 50.1773 34.0787C51.2368 34.6632 52.0315 35.4396 52.543 36.4169L49.4649 38.6091C49.337 38.2711 49.1452 37.9697 48.9168 37.7322C48.6885 37.4856 48.4327 37.2938 48.1587 37.1659C47.8755 37.0381 47.5924 36.9376 47.3092 36.8828C47.0352 36.828 46.7429 36.8006 46.4415 36.8006C45.8935 36.8006 45.3911 36.9102 44.9618 37.1385C44.5234 37.3577 44.1763 37.6592 43.9114 38.0337C43.6557 38.4081 43.4547 38.8192 43.3177 39.2576C43.1898 39.7052 43.1168 40.1619 43.1168 40.646C43.1168 41.7146 43.4182 42.6372 44.0393 43.3953C44.6513 44.1625 45.4642 44.537 46.4781 44.537C46.8708 44.537 47.2544 44.4822 47.6198 44.3726C47.9852 44.263 48.3322 44.0712 48.6702 43.788C48.999 43.514 49.2456 43.1669 49.4009 42.7468L52.6983 44.7014C52.4243 45.3956 51.9401 46.0076 51.246 46.5374C50.5609 47.0671 49.7845 47.469 48.9533 47.7339C48.1039 47.9896 47.2636 48.1267 46.405 48.1267C45.3546 48.1267 44.359 47.9074 43.4273 47.469C42.4957 47.0306 41.7101 46.4551 41.0799 45.7518C40.4405 45.0394 39.9473 44.2265 39.5728 43.3131C39.2074 42.4088 39.0156 41.4772 39.0156 40.5455C39.0156 39.6138 39.1892 38.7552 39.5363 37.8875C39.8833 37.0198 40.3674 36.2434 40.9977 35.5492C41.6188 34.855 42.4134 34.2979 43.3725 33.8686C44.3407 33.4484 45.3911 33.2292 46.5329 33.2292" fill="white"/>
<path d="M64.6794 48.1082C63.766 48.1082 62.9349 47.9803 62.1859 47.7246C61.4369 47.4688 60.8158 47.1126 60.3043 46.6742C59.7928 46.2266 59.3726 45.6969 59.0255 45.0758C58.6784 44.4546 58.4318 43.797 58.2765 43.0846C58.1213 42.3812 58.0391 41.6323 58.0391 40.8376V33.293H62.0854V40.8376C62.0854 41.34 62.1311 41.8149 62.2315 42.2442C62.332 42.6735 62.4782 43.0663 62.6791 43.4134C62.88 43.7605 63.1541 44.0345 63.492 44.2354C63.83 44.4364 64.2227 44.5368 64.6794 44.5368C65.1361 44.5368 65.538 44.4364 65.876 44.2354C66.2231 44.0345 66.4971 43.7605 66.698 43.4042C66.8899 43.048 67.0451 42.6644 67.1456 42.2351C67.2461 41.8149 67.2917 41.3491 67.2917 40.8559V33.3112H71.3198V40.8559C71.3198 41.9063 71.1919 42.8562 70.9179 43.7239C70.6439 44.5917 70.2511 45.3589 69.7214 46.0165C69.1916 46.6742 68.4974 47.1857 67.6388 47.5602C66.7802 47.9255 65.7938 48.1174 64.6886 48.1174" fill="white"/>
<path d="M77.7656 47.9895V33.293H81.7937V44.4729H88.4706V47.9895H77.7656Z" fill="white"/>
<path d="M103.48 36.8095H99.2689V47.9895H95.2317V36.8095H90.9844V33.293H103.48V36.8095Z" fill="white"/>
<path d="M115.508 48.1082C114.594 48.1082 113.763 47.9803 113.014 47.7246C112.265 47.4688 111.644 47.1126 111.132 46.6742C110.621 46.2266 110.201 45.6969 109.854 45.0758C109.507 44.4546 109.26 43.797 109.105 43.0846C108.94 42.3812 108.867 41.6323 108.867 40.8376V33.293H112.914V40.8376C112.914 41.34 112.959 41.8149 113.06 42.2442C113.16 42.6735 113.306 43.0663 113.507 43.4134C113.708 43.7605 113.982 44.0345 114.32 44.2354C114.658 44.4364 115.051 44.5368 115.508 44.5368C115.964 44.5368 116.366 44.4364 116.704 44.2354C117.051 44.0345 117.325 43.7605 117.526 43.4042C117.718 43.048 117.873 42.6644 117.974 42.2351C118.074 41.8149 118.12 41.3491 118.12 40.8559V33.3112H122.148V40.8559C122.148 41.9063 122.02 42.8562 121.746 43.7239C121.472 44.5917 121.079 45.3589 120.549 46.0165C120.02 46.6742 119.326 47.1857 118.467 47.5602C117.608 47.9255 116.622 48.1174 115.517 48.1174" fill="white"/>
<path d="M132.622 39.9607H135.179C135.435 39.9607 135.673 39.8146 135.883 39.5314C136.093 39.2392 136.193 38.8647 136.193 38.3897C136.193 37.9147 136.074 37.5402 135.837 37.248C135.599 36.9557 135.344 36.8095 135.07 36.8095H132.622V39.9607ZM128.594 47.9895V33.293H135.344C136.038 33.293 136.705 33.4482 137.326 33.7405C137.947 34.0419 138.477 34.4256 138.897 34.9097C139.317 35.3846 139.664 35.9327 139.911 36.5355C140.157 37.1475 140.285 37.7595 140.285 38.3897C140.285 39.2392 140.103 40.0338 139.728 40.7737C139.354 41.5135 138.842 42.1164 138.175 42.5731L141.281 47.9803H136.851L134.266 43.4773H132.631V47.9803H128.603L128.594 47.9895Z" fill="white"/>
<path d="M153.648 42.4178L152.342 37.248L150.971 42.4178H153.639H153.648ZM150.095 33.293H154.607L159.283 47.9895H155.182L154.296 45.1032H150.378L149.51 47.9895H145.391L150.095 33.293Z" fill="white"/>
</g>
<defs>
<clipPath id="clip0_62_266">
<rect width="199.046" height="48.1267" fill="white"/>
</clipPath>
</defs>
</svg>
