<svg width="73" height="73" viewBox="0 0 73 73" fill="none" xmlns="http://www.w3.org/2000/svg">
<path d="M36.1543 0C56.1218 0 72.3085 16.1868 72.3086 36.1543C72.3086 56.1218 56.1218 72.3086 36.1543 72.3086C16.1868 72.3085 0 56.1218 0 36.1543C5.36022e-05 16.1869 16.1869 5.36055e-05 36.1543 0ZM15.6309 29.4971C14.9487 29.6673 14.5109 30.2113 14.3828 30.8896V54.9443C14.5637 57.1165 16.114 58.8666 18.2578 59.2812C30.3197 59.4523 42.4352 59.4778 54.4951 59.2686C56.6467 58.7483 58.1307 57.0716 58.2861 54.8477V31.083C58.2157 30.296 57.8553 29.7835 57.1113 29.5195L15.6309 29.4961V29.4971ZM34.499 46.7031C35.1471 46.5946 37.3232 46.5986 37.9873 46.6885C38.7254 46.7892 39.3241 47.3028 39.4141 48.0977C39.504 48.8927 39.5001 50.8176 39.4141 51.6172C39.324 52.4655 38.6902 52.954 37.8975 53.0332C37.1047 53.1124 35.4668 53.1123 34.6738 53.0332C33.8488 52.9501 33.2532 52.4694 33.1572 51.6172C33.0741 50.8752 33.0614 48.6326 33.1807 47.9248C33.2874 47.2946 33.8795 46.8068 34.5 46.7031H34.499ZM23.5498 46.7021C24.1891 46.5936 26.3781 46.5976 27.0371 46.6875C27.6324 46.7686 28.2136 47.183 28.4141 47.7549C28.6663 48.4763 28.6604 51.3972 28.3564 52.0947C28.1003 52.6823 27.5622 52.9706 26.9473 53.0322C26.1564 53.1114 24.5145 53.1124 23.7236 53.0322C22.8587 52.9451 22.3058 52.3914 22.207 51.5186C22.1289 50.8241 22.1103 48.668 22.2139 48.0059C22.3087 47.4037 22.9555 46.8049 23.5508 46.7031L23.5498 46.7021ZM34.2041 35.8496C34.6665 35.746 37.7787 35.7489 38.2852 35.834C38.7191 35.9066 39.2098 36.4323 39.3398 36.832C39.4904 37.2954 39.4884 40.1771 39.417 40.7686C39.3327 41.4673 38.6774 42.0097 37.9971 42.0859C37.2168 42.1729 35.3572 42.17 34.5742 42.0859C33.897 42.0134 33.2396 41.4662 33.1553 40.7686C33.0663 40.0295 33.0634 37.784 33.166 37.0586C33.2356 36.5689 33.7213 35.9571 34.2041 35.8486V35.8496ZM45.2529 35.8506C45.8014 35.7391 48.6498 35.745 49.2334 35.835C49.8736 35.9338 50.3915 36.6215 50.4619 37.2461C50.5489 38.0263 50.544 39.9024 50.4619 40.668C50.3798 41.4333 49.8092 41.9997 49.0449 42.0859C48.3713 42.1612 45.6041 42.1643 45.0654 41.958C44.6822 41.8114 44.4044 41.4691 44.2715 41.0898C44.0163 40.3635 44.0125 37.6278 44.2305 36.8809C44.3576 36.444 44.7965 35.9436 45.2529 35.8506ZM49.6846 15.0518C49.6846 13.3469 47.7361 12.0898 46.127 12.2764C44.945 12.4132 43.4277 13.7291 43.4277 14.9541V16.958H29.3486V15.0518C29.3486 13.3429 27.3973 12.0975 25.791 12.2764C24.5934 12.4103 23.0918 13.7116 23.0918 14.9541V16.958H18.3506C16.4178 16.958 14.5539 19.3974 14.3926 21.2129C14.2821 22.4574 14.1204 24.6287 15.7363 24.8516C29.6038 24.8428 43.5007 24.9973 57.3525 24.7744C58.7798 24.3042 58.5052 21.5804 58.1836 20.4346C57.7691 18.9574 55.9441 16.9582 54.3281 16.958H49.6846V15.0518Z" fill="#EEEEEE"/>
</svg>
