<svg width="73" height="73" viewBox="0 0 73 73" fill="none" xmlns="http://www.w3.org/2000/svg">
<path d="M36.1543 0C56.1218 0 72.3085 16.1868 72.3086 36.1543C72.3086 56.1218 56.1218 72.3086 36.1543 72.3086C16.1868 72.3085 0 56.1218 0 36.1543C5.36022e-05 16.1869 16.1869 5.36055e-05 36.1543 0ZM34.6562 22.4258H10.2031V49.8857H62.1045V33.5742H62.1113V22.4219H34.6562V22.4258ZM18.3545 46.8857H15.3203L18.3545 43.8506V46.8857ZM26.5 46.8857H21.3594V40.8457L26.5 35.7051V46.8857ZM34.6514 46.8857H29.5107V33.582H34.6514V46.8857ZM42.8076 46.8857H37.6562V33.582H42.8076V46.8857ZM50.9531 40.8418V46.8857H45.8125V35.7012L50.9531 40.8418ZM56.9971 46.8857H53.9639V43.8525L56.9971 46.8857ZM18.3545 39.6084L13.2031 44.7598V33.582H18.3545V39.6084ZM59.1045 44.75L53.9639 39.6094V33.582H59.1045V44.75ZM21.3594 36.6035V33.582H24.3809L21.3594 36.6035ZM50.9531 36.5986L47.9365 33.582H50.9531V36.5986ZM34.6562 30.5781H31.627L34.6562 27.5488V30.5781ZM24.3789 30.5781H15.3164L19.8477 26.0469L24.3789 30.5781ZM56.9922 30.5742H47.9365L52.4648 26.0469L56.9922 30.5742ZM40.6855 30.5742H37.6582V27.5469L40.6855 30.5742ZM32.5371 25.4258L28.0029 29.96L23.4688 25.4258H32.5371ZM44.3115 29.957L39.7764 25.4219H48.8477L44.3115 29.957ZM59.1113 28.4512L56.082 25.4219H59.1113V28.4512ZM16.2266 25.4258L13.2031 28.4492V25.4258H16.2266Z" fill="#EEEEEE"/>
</svg>
